<svg width="437" height="656" viewBox="0 0 437 656" fill="none" xmlns="http://www.w3.org/2000/svg">
<rect x="1.5" y="538.5" width="95" height="63" fill="#43D370" stroke="#38A35A" stroke-width="3"/>
<rect x="340.5" y="538.5" width="95" height="63" fill="#43D370" stroke="#38A35A" stroke-width="3"/>
<rect x="227.5" y="538.5" width="95" height="63" fill="#43D370" stroke="#38A35A" stroke-width="3"/>
<rect x="114.5" y="538.5" width="95" height="63" fill="#EDBD42" stroke="#CFA53A" stroke-width="3"/>
<path d="M35.54 565.58V562.4H41.08V577H37.52V565.58H35.54ZM43.4195 569.5C43.4195 567.207 43.8595 565.4 44.7395 564.08C45.6329 562.76 47.0662 562.1 49.0395 562.1C51.0129 562.1 52.4395 562.76 53.3195 564.08C54.2129 565.4 54.6595 567.207 54.6595 569.5C54.6595 571.82 54.2129 573.64 53.3195 574.96C52.4395 576.28 51.0129 576.94 49.0395 576.94C47.0662 576.94 45.6329 576.28 44.7395 574.96C43.8595 573.64 43.4195 571.82 43.4195 569.5ZM51.2995 569.5C51.2995 568.153 51.1529 567.12 50.8595 566.4C50.5662 565.667 49.9595 565.3 49.0395 565.3C48.1195 565.3 47.5129 565.667 47.2195 566.4C46.9262 567.12 46.7795 568.153 46.7795 569.5C46.7795 570.407 46.8329 571.16 46.9395 571.76C47.0462 572.347 47.2595 572.827 47.5795 573.2C47.9129 573.56 48.3995 573.74 49.0395 573.74C49.6795 573.74 50.1595 573.56 50.4795 573.2C50.8129 572.827 51.0329 572.347 51.1395 571.76C51.2462 571.16 51.2995 570.407 51.2995 569.5ZM56.1064 565.58V562.4H61.6464V577H58.0864V565.58H56.1064Z" fill="white"/>
<path d="M260.54 565.58V562.4H266.08V577H262.52V565.58H260.54ZM268.42 569.5C268.42 567.207 268.86 565.4 269.74 564.08C270.633 562.76 272.066 562.1 274.04 562.1C276.013 562.1 277.44 562.76 278.32 564.08C279.213 565.4 279.66 567.207 279.66 569.5C279.66 571.82 279.213 573.64 278.32 574.96C277.44 576.28 276.013 576.94 274.04 576.94C272.066 576.94 270.633 576.28 269.74 574.96C268.86 573.64 268.42 571.82 268.42 569.5ZM276.3 569.5C276.3 568.153 276.153 567.12 275.86 566.4C275.566 565.667 274.96 565.3 274.04 565.3C273.12 565.3 272.513 565.667 272.22 566.4C271.926 567.12 271.78 568.153 271.78 569.5C271.78 570.407 271.833 571.16 271.94 571.76C272.046 572.347 272.26 572.827 272.58 573.2C272.913 573.56 273.4 573.74 274.04 573.74C274.68 573.74 275.16 573.56 275.48 573.2C275.813 572.827 276.033 572.347 276.14 571.76C276.246 571.16 276.3 570.407 276.3 569.5ZM281.346 574.26C281.8 573.9 282.006 573.733 281.966 573.76C283.273 572.68 284.3 571.793 285.046 571.1C285.806 570.407 286.446 569.68 286.966 568.92C287.486 568.16 287.746 567.42 287.746 566.7C287.746 566.153 287.62 565.727 287.366 565.42C287.113 565.113 286.733 564.96 286.226 564.96C285.72 564.96 285.32 565.153 285.026 565.54C284.746 565.913 284.606 566.447 284.606 567.14H281.306C281.333 566.007 281.573 565.06 282.026 564.3C282.493 563.54 283.1 562.98 283.846 562.62C284.606 562.26 285.446 562.08 286.366 562.08C287.953 562.08 289.146 562.487 289.946 563.3C290.76 564.113 291.166 565.173 291.166 566.48C291.166 567.907 290.68 569.233 289.706 570.46C288.733 571.673 287.493 572.86 285.986 574.02H291.386V576.8H281.346V574.26Z" fill="white"/>
<path d="M374.54 565.58V562.4H380.08V577H376.52V565.58H374.54ZM382.42 569.5C382.42 567.207 382.86 565.4 383.74 564.08C384.633 562.76 386.066 562.1 388.04 562.1C390.013 562.1 391.44 562.76 392.32 564.08C393.213 565.4 393.66 567.207 393.66 569.5C393.66 571.82 393.213 573.64 392.32 574.96C391.44 576.28 390.013 576.94 388.04 576.94C386.066 576.94 384.633 576.28 383.74 574.96C382.86 573.64 382.42 571.82 382.42 569.5ZM390.3 569.5C390.3 568.153 390.153 567.12 389.86 566.4C389.566 565.667 388.96 565.3 388.04 565.3C387.12 565.3 386.513 565.667 386.22 566.4C385.926 567.12 385.78 568.153 385.78 569.5C385.78 570.407 385.833 571.16 385.94 571.76C386.046 572.347 386.26 572.827 386.58 573.2C386.913 573.56 387.4 573.74 388.04 573.74C388.68 573.74 389.16 573.56 389.48 573.2C389.813 572.827 390.033 572.347 390.14 571.76C390.246 571.16 390.3 570.407 390.3 569.5ZM395.586 566.52C395.64 565.093 396.106 563.993 396.986 563.22C397.866 562.447 399.06 562.06 400.566 562.06C401.566 562.06 402.42 562.233 403.126 562.58C403.846 562.927 404.386 563.4 404.746 564C405.12 564.6 405.306 565.273 405.306 566.02C405.306 566.9 405.086 567.62 404.646 568.18C404.206 568.727 403.693 569.1 403.106 569.3V569.38C403.866 569.633 404.466 570.053 404.906 570.64C405.346 571.227 405.566 571.98 405.566 572.9C405.566 573.727 405.373 574.46 404.986 575.1C404.613 575.727 404.06 576.22 403.326 576.58C402.606 576.94 401.746 577.12 400.746 577.12C399.146 577.12 397.866 576.727 396.906 575.94C395.96 575.153 395.46 573.967 395.406 572.38H398.726C398.74 572.967 398.906 573.433 399.226 573.78C399.546 574.113 400.013 574.28 400.626 574.28C401.146 574.28 401.546 574.133 401.826 573.84C402.12 573.533 402.266 573.133 402.266 572.64C402.266 572 402.06 571.54 401.646 571.26C401.246 570.967 400.6 570.82 399.706 570.82H399.066V568.04H399.706C400.386 568.04 400.933 567.927 401.346 567.7C401.773 567.46 401.986 567.04 401.986 566.44C401.986 565.96 401.853 565.587 401.586 565.32C401.32 565.053 400.953 564.92 400.486 564.92C399.98 564.92 399.6 565.073 399.346 565.38C399.106 565.687 398.966 566.067 398.926 566.52H395.586Z" fill="white"/>
<rect x="3" y="625" width="431" height="30" fill="#D9D9D9"/>
<path d="M178.54 636.58V633.4H184.08V648H180.52V636.58H178.54ZM191.3 648.16C190.326 648.16 189.46 647.993 188.7 647.66C187.94 647.327 187.34 646.873 186.9 646.3C186.46 645.713 186.213 645.06 186.16 644.34H189.54C189.58 644.727 189.76 645.04 190.08 645.28C190.4 645.52 190.793 645.64 191.26 645.64C191.686 645.64 192.013 645.56 192.24 645.4C192.48 645.227 192.6 645.007 192.6 644.74C192.6 644.42 192.433 644.187 192.1 644.04C191.766 643.88 191.226 643.707 190.48 643.52C189.68 643.333 189.013 643.14 188.48 642.94C187.946 642.727 187.486 642.4 187.1 641.96C186.713 641.507 186.52 640.9 186.52 640.14C186.52 639.5 186.693 638.92 187.04 638.4C187.4 637.867 187.92 637.447 188.6 637.14C189.293 636.833 190.113 636.68 191.06 636.68C192.46 636.68 193.56 637.027 194.36 637.72C195.173 638.413 195.64 639.333 195.76 640.48H192.6C192.546 640.093 192.373 639.787 192.08 639.56C191.8 639.333 191.426 639.22 190.96 639.22C190.56 639.22 190.253 639.3 190.04 639.46C189.826 639.607 189.72 639.813 189.72 640.08C189.72 640.4 189.886 640.64 190.22 640.8C190.566 640.96 191.1 641.12 191.82 641.28C192.646 641.493 193.32 641.707 193.84 641.92C194.36 642.12 194.813 642.453 195.2 642.92C195.6 643.373 195.806 643.987 195.82 644.76C195.82 645.413 195.633 646 195.26 646.52C194.9 647.027 194.373 647.427 193.68 647.72C193 648.013 192.206 648.16 191.3 648.16ZM204.132 645.1V648H202.392C201.152 648 200.185 647.7 199.492 647.1C198.799 646.487 198.452 645.493 198.452 644.12V639.68H197.092V636.84H198.452V634.12H201.872V636.84H204.112V639.68H201.872V644.16C201.872 644.493 201.952 644.733 202.112 644.88C202.272 645.027 202.539 645.1 202.912 645.1H204.132ZM219.415 633.96V636.7H213.695V639.66H217.975V642.32H213.695V648H210.275V633.96H219.415ZM224.633 633.2V648H221.213V633.2H224.633ZM232.191 648.16C231.098 648.16 230.111 647.927 229.231 647.46C228.364 646.993 227.678 646.327 227.171 645.46C226.678 644.593 226.431 643.58 226.431 642.42C226.431 641.273 226.684 640.267 227.191 639.4C227.698 638.52 228.391 637.847 229.271 637.38C230.151 636.913 231.138 636.68 232.231 636.68C233.324 636.68 234.311 636.913 235.191 637.38C236.071 637.847 236.764 638.52 237.271 639.4C237.778 640.267 238.031 641.273 238.031 642.42C238.031 643.567 237.771 644.58 237.251 645.46C236.744 646.327 236.044 646.993 235.151 647.46C234.271 647.927 233.284 648.16 232.191 648.16ZM232.191 645.2C232.844 645.2 233.398 644.96 233.851 644.48C234.318 644 234.551 643.313 234.551 642.42C234.551 641.527 234.324 640.84 233.871 640.36C233.431 639.88 232.884 639.64 232.231 639.64C231.564 639.64 231.011 639.88 230.571 640.36C230.131 640.827 229.911 641.513 229.911 642.42C229.911 643.313 230.124 644 230.551 644.48C230.991 644.96 231.538 645.2 232.191 645.2ZM244.925 648.16C243.832 648.16 242.845 647.927 241.965 647.46C241.099 646.993 240.412 646.327 239.905 645.46C239.412 644.593 239.165 643.58 239.165 642.42C239.165 641.273 239.419 640.267 239.925 639.4C240.432 638.52 241.125 637.847 242.005 637.38C242.885 636.913 243.872 636.68 244.965 636.68C246.059 636.68 247.045 636.913 247.925 637.38C248.805 637.847 249.499 638.52 250.005 639.4C250.512 640.267 250.765 641.273 250.765 642.42C250.765 643.567 250.505 644.58 249.985 645.46C249.479 646.327 248.779 646.993 247.885 647.46C247.005 647.927 246.019 648.16 244.925 648.16ZM244.925 645.2C245.579 645.2 246.132 644.96 246.585 644.48C247.052 644 247.285 643.313 247.285 642.42C247.285 641.527 247.059 640.84 246.605 640.36C246.165 639.88 245.619 639.64 244.965 639.64C244.299 639.64 243.745 639.88 243.305 640.36C242.865 640.827 242.645 641.513 242.645 642.42C242.645 643.313 242.859 644 243.285 644.48C243.725 644.96 244.272 645.2 244.925 645.2ZM256 638.7C256.4 638.087 256.9 637.607 257.5 637.26C258.1 636.9 258.767 636.72 259.5 636.72V640.34H258.56C257.707 640.34 257.067 640.527 256.64 640.9C256.213 641.26 256 641.9 256 642.82V648H252.58V636.84H256V638.7Z" fill="#2B2B2B"/>
<rect x="1.5" y="361.5" width="138" height="82" fill="#43D370" stroke="#38A35A" stroke-width="3"/>
<path d="M57.78 407.26C58.2333 406.9 58.44 406.733 58.4 406.76C59.7067 405.68 60.7333 404.793 61.48 404.1C62.24 403.407 62.88 402.68 63.4 401.92C63.92 401.16 64.18 400.42 64.18 399.7C64.18 399.153 64.0533 398.727 63.8 398.42C63.5467 398.113 63.1667 397.96 62.66 397.96C62.1533 397.96 61.7533 398.153 61.46 398.54C61.18 398.913 61.04 399.447 61.04 400.14H57.74C57.7667 399.007 58.0067 398.06 58.46 397.3C58.9267 396.54 59.5333 395.98 60.28 395.62C61.04 395.26 61.88 395.08 62.8 395.08C64.3867 395.08 65.58 395.487 66.38 396.3C67.1933 397.113 67.6 398.173 67.6 399.48C67.6 400.907 67.1133 402.233 66.14 403.46C65.1667 404.673 63.9267 405.86 62.42 407.02H67.82V409.8H57.78V407.26ZM69.3258 402.5C69.3258 400.207 69.7658 398.4 70.6458 397.08C71.5391 395.76 72.9724 395.1 74.9458 395.1C76.9191 395.1 78.3458 395.76 79.2258 397.08C80.1191 398.4 80.5658 400.207 80.5658 402.5C80.5658 404.82 80.1191 406.64 79.2258 407.96C78.3458 409.28 76.9191 409.94 74.9458 409.94C72.9724 409.94 71.5391 409.28 70.6458 407.96C69.7658 406.64 69.3258 404.82 69.3258 402.5ZM77.2058 402.5C77.2058 401.153 77.0591 400.12 76.7658 399.4C76.4724 398.667 75.8658 398.3 74.9458 398.3C74.0258 398.3 73.4191 398.667 73.1258 399.4C72.8324 400.12 72.6858 401.153 72.6858 402.5C72.6858 403.407 72.7391 404.16 72.8458 404.76C72.9524 405.347 73.1658 405.827 73.4858 406.2C73.8191 406.56 74.3058 406.74 74.9458 406.74C75.5858 406.74 76.0658 406.56 76.3858 406.2C76.7191 405.827 76.9391 405.347 77.0458 404.76C77.1524 404.16 77.2058 403.407 77.2058 402.5ZM82.0127 398.58V395.4H87.5527V410H83.9927V398.58H82.0127Z" fill="white"/>
<rect x="149.5" y="361.5" width="138" height="82" fill="#43D370" stroke="#38A35A" stroke-width="3"/>
<path d="M204.78 407.26C205.233 406.9 205.44 406.733 205.4 406.76C206.707 405.68 207.733 404.793 208.48 404.1C209.24 403.407 209.88 402.68 210.4 401.92C210.92 401.16 211.18 400.42 211.18 399.7C211.18 399.153 211.053 398.727 210.8 398.42C210.547 398.113 210.167 397.96 209.66 397.96C209.153 397.96 208.753 398.153 208.46 398.54C208.18 398.913 208.04 399.447 208.04 400.14H204.74C204.767 399.007 205.007 398.06 205.46 397.3C205.927 396.54 206.533 395.98 207.28 395.62C208.04 395.26 208.88 395.08 209.8 395.08C211.387 395.08 212.58 395.487 213.38 396.3C214.193 397.113 214.6 398.173 214.6 399.48C214.6 400.907 214.113 402.233 213.14 403.46C212.167 404.673 210.927 405.86 209.42 407.02H214.82V409.8H204.78V407.26ZM216.326 402.5C216.326 400.207 216.766 398.4 217.646 397.08C218.539 395.76 219.972 395.1 221.946 395.1C223.919 395.1 225.346 395.76 226.226 397.08C227.119 398.4 227.566 400.207 227.566 402.5C227.566 404.82 227.119 406.64 226.226 407.96C225.346 409.28 223.919 409.94 221.946 409.94C219.972 409.94 218.539 409.28 217.646 407.96C216.766 406.64 216.326 404.82 216.326 402.5ZM224.206 402.5C224.206 401.153 224.059 400.12 223.766 399.4C223.472 398.667 222.866 398.3 221.946 398.3C221.026 398.3 220.419 398.667 220.126 399.4C219.832 400.12 219.686 401.153 219.686 402.5C219.686 403.407 219.739 404.16 219.846 404.76C219.952 405.347 220.166 405.827 220.486 406.2C220.819 406.56 221.306 406.74 221.946 406.74C222.586 406.74 223.066 406.56 223.386 406.2C223.719 405.827 223.939 405.347 224.046 404.76C224.152 404.16 224.206 403.407 224.206 402.5ZM229.253 407.26C229.706 406.9 229.913 406.733 229.873 406.76C231.179 405.68 232.206 404.793 232.953 404.1C233.713 403.407 234.353 402.68 234.873 401.92C235.393 401.16 235.653 400.42 235.653 399.7C235.653 399.153 235.526 398.727 235.273 398.42C235.019 398.113 234.639 397.96 234.133 397.96C233.626 397.96 233.226 398.153 232.933 398.54C232.653 398.913 232.513 399.447 232.513 400.14H229.213C229.239 399.007 229.479 398.06 229.933 397.3C230.399 396.54 231.006 395.98 231.753 395.62C232.513 395.26 233.353 395.08 234.273 395.08C235.859 395.08 237.053 395.487 237.853 396.3C238.666 397.113 239.073 398.173 239.073 399.48C239.073 400.907 238.586 402.233 237.613 403.46C236.639 404.673 235.399 405.86 233.893 407.02H239.293V409.8H229.253V407.26Z" fill="white"/>
<rect x="297.5" y="361.5" width="138" height="82" fill="#43D370" stroke="#38A35A" stroke-width="3"/>
<path d="M350.78 407.26C351.233 406.9 351.44 406.733 351.4 406.76C352.707 405.68 353.733 404.793 354.48 404.1C355.24 403.407 355.88 402.68 356.4 401.92C356.92 401.16 357.18 400.42 357.18 399.7C357.18 399.153 357.053 398.727 356.8 398.42C356.547 398.113 356.167 397.96 355.66 397.96C355.153 397.96 354.753 398.153 354.46 398.54C354.18 398.913 354.04 399.447 354.04 400.14H350.74C350.767 399.007 351.007 398.06 351.46 397.3C351.927 396.54 352.533 395.98 353.28 395.62C354.04 395.26 354.88 395.08 355.8 395.08C357.387 395.08 358.58 395.487 359.38 396.3C360.193 397.113 360.6 398.173 360.6 399.48C360.6 400.907 360.113 402.233 359.14 403.46C358.167 404.673 356.927 405.86 355.42 407.02H360.82V409.8H350.78V407.26ZM362.326 402.5C362.326 400.207 362.766 398.4 363.646 397.08C364.539 395.76 365.972 395.1 367.946 395.1C369.919 395.1 371.346 395.76 372.226 397.08C373.119 398.4 373.566 400.207 373.566 402.5C373.566 404.82 373.119 406.64 372.226 407.96C371.346 409.28 369.919 409.94 367.946 409.94C365.972 409.94 364.539 409.28 363.646 407.96C362.766 406.64 362.326 404.82 362.326 402.5ZM370.206 402.5C370.206 401.153 370.059 400.12 369.766 399.4C369.472 398.667 368.866 398.3 367.946 398.3C367.026 398.3 366.419 398.667 366.126 399.4C365.832 400.12 365.686 401.153 365.686 402.5C365.686 403.407 365.739 404.16 365.846 404.76C365.952 405.347 366.166 405.827 366.486 406.2C366.819 406.56 367.306 406.74 367.946 406.74C368.586 406.74 369.066 406.56 369.386 406.2C369.719 405.827 369.939 405.347 370.046 404.76C370.152 404.16 370.206 403.407 370.206 402.5ZM375.493 399.52C375.546 398.093 376.013 396.993 376.893 396.22C377.773 395.447 378.966 395.06 380.473 395.06C381.473 395.06 382.326 395.233 383.033 395.58C383.753 395.927 384.293 396.4 384.653 397C385.026 397.6 385.213 398.273 385.213 399.02C385.213 399.9 384.993 400.62 384.553 401.18C384.113 401.727 383.599 402.1 383.013 402.3V402.38C383.773 402.633 384.373 403.053 384.813 403.64C385.253 404.227 385.473 404.98 385.473 405.9C385.473 406.727 385.279 407.46 384.893 408.1C384.519 408.727 383.966 409.22 383.233 409.58C382.513 409.94 381.653 410.12 380.653 410.12C379.053 410.12 377.773 409.727 376.813 408.94C375.866 408.153 375.366 406.967 375.313 405.38H378.633C378.646 405.967 378.813 406.433 379.133 406.78C379.453 407.113 379.919 407.28 380.533 407.28C381.053 407.28 381.453 407.133 381.733 406.84C382.026 406.533 382.173 406.133 382.173 405.64C382.173 405 381.966 404.54 381.553 404.26C381.153 403.967 380.506 403.82 379.613 403.82H378.973V401.04H379.613C380.293 401.04 380.839 400.927 381.253 400.7C381.679 400.46 381.893 400.04 381.893 399.44C381.893 398.96 381.759 398.587 381.493 398.32C381.226 398.053 380.859 397.92 380.393 397.92C379.886 397.92 379.506 398.073 379.253 398.38C379.013 398.687 378.873 399.067 378.833 399.52H375.493Z" fill="white"/>
<rect x="3" y="465" width="431" height="30" fill="#D9D9D9"/>
<path d="M172.78 483.26C173.233 482.9 173.44 482.733 173.4 482.76C174.707 481.68 175.733 480.793 176.48 480.1C177.24 479.407 177.88 478.68 178.4 477.92C178.92 477.16 179.18 476.42 179.18 475.7C179.18 475.153 179.053 474.727 178.8 474.42C178.547 474.113 178.167 473.96 177.66 473.96C177.153 473.96 176.753 474.153 176.46 474.54C176.18 474.913 176.04 475.447 176.04 476.14H172.74C172.767 475.007 173.007 474.06 173.46 473.3C173.927 472.54 174.533 471.98 175.28 471.62C176.04 471.26 176.88 471.08 177.8 471.08C179.387 471.08 180.58 471.487 181.38 472.3C182.193 473.113 182.6 474.173 182.6 475.48C182.6 476.907 182.113 478.233 181.14 479.46C180.167 480.673 178.927 481.86 177.42 483.02H182.82V485.8H172.78V483.26ZM191.466 474.72C192.772 474.72 193.812 475.147 194.586 476C195.372 476.84 195.766 478 195.766 479.48V486H192.366V479.94C192.366 479.193 192.172 478.613 191.786 478.2C191.399 477.787 190.879 477.58 190.226 477.58C189.572 477.58 189.052 477.787 188.666 478.2C188.279 478.613 188.086 479.193 188.086 479.94V486H184.666V474.84H188.086V476.32C188.432 475.827 188.899 475.44 189.486 475.16C190.072 474.867 190.732 474.72 191.466 474.72ZM197.462 480.4C197.462 479.253 197.676 478.247 198.102 477.38C198.542 476.513 199.136 475.847 199.882 475.38C200.629 474.913 201.462 474.68 202.382 474.68C203.116 474.68 203.782 474.833 204.382 475.14C204.996 475.447 205.476 475.86 205.822 476.38V471.2H209.242V486H205.822V484.4C205.502 484.933 205.042 485.36 204.442 485.68C203.856 486 203.169 486.16 202.382 486.16C201.462 486.16 200.629 485.927 199.882 485.46C199.136 484.98 198.542 484.307 198.102 483.44C197.676 482.56 197.462 481.547 197.462 480.4ZM205.822 480.42C205.822 479.567 205.582 478.893 205.102 478.4C204.636 477.907 204.062 477.66 203.382 477.66C202.702 477.66 202.122 477.907 201.642 478.4C201.176 478.88 200.942 479.547 200.942 480.4C200.942 481.253 201.176 481.933 201.642 482.44C202.122 482.933 202.702 483.18 203.382 483.18C204.062 483.18 204.636 482.933 205.102 482.44C205.582 481.947 205.822 481.273 205.822 480.42ZM225.095 471.96V474.7H219.375V477.66H223.655V480.32H219.375V486H215.955V471.96H225.095ZM230.312 471.2V486H226.892V471.2H230.312ZM237.871 486.16C236.777 486.16 235.791 485.927 234.911 485.46C234.044 484.993 233.357 484.327 232.851 483.46C232.357 482.593 232.111 481.58 232.111 480.42C232.111 479.273 232.364 478.267 232.871 477.4C233.377 476.52 234.071 475.847 234.951 475.38C235.831 474.913 236.817 474.68 237.911 474.68C239.004 474.68 239.991 474.913 240.871 475.38C241.751 475.847 242.444 476.52 242.951 477.4C243.457 478.267 243.711 479.273 243.711 480.42C243.711 481.567 243.451 482.58 242.931 483.46C242.424 484.327 241.724 484.993 240.831 485.46C239.951 485.927 238.964 486.16 237.871 486.16ZM237.871 483.2C238.524 483.2 239.077 482.96 239.531 482.48C239.997 482 240.231 481.313 240.231 480.42C240.231 479.527 240.004 478.84 239.551 478.36C239.111 477.88 238.564 477.64 237.911 477.64C237.244 477.64 236.691 477.88 236.251 478.36C235.811 478.827 235.591 479.513 235.591 480.42C235.591 481.313 235.804 482 236.231 482.48C236.671 482.96 237.217 483.2 237.871 483.2ZM250.605 486.16C249.512 486.16 248.525 485.927 247.645 485.46C246.778 484.993 246.092 484.327 245.585 483.46C245.092 482.593 244.845 481.58 244.845 480.42C244.845 479.273 245.098 478.267 245.605 477.4C246.112 476.52 246.805 475.847 247.685 475.38C248.565 474.913 249.552 474.68 250.645 474.68C251.738 474.68 252.725 474.913 253.605 475.38C254.485 475.847 255.178 476.52 255.685 477.4C256.192 478.267 256.445 479.273 256.445 480.42C256.445 481.567 256.185 482.58 255.665 483.46C255.158 484.327 254.458 484.993 253.565 485.46C252.685 485.927 251.698 486.16 250.605 486.16ZM250.605 483.2C251.258 483.2 251.812 482.96 252.265 482.48C252.732 482 252.965 481.313 252.965 480.42C252.965 479.527 252.738 478.84 252.285 478.36C251.845 477.88 251.298 477.64 250.645 477.64C249.978 477.64 249.425 477.88 248.985 478.36C248.545 478.827 248.325 479.513 248.325 480.42C248.325 481.313 248.538 482 248.965 482.48C249.405 482.96 249.952 483.2 250.605 483.2ZM261.68 476.7C262.08 476.087 262.58 475.607 263.18 475.26C263.78 474.9 264.446 474.72 265.18 474.72V478.34H264.24C263.386 478.34 262.746 478.527 262.32 478.9C261.893 479.26 261.68 479.9 261.68 480.82V486H258.26V474.84H261.68V476.7Z" fill="#2B2B2B"/>
<rect x="1.5" y="181.5" width="138" height="82" fill="#43D370" stroke="#38A35A" stroke-width="3"/>
<path d="M58.02 219.52C58.0733 218.093 58.54 216.993 59.42 216.22C60.3 215.447 61.4933 215.06 63 215.06C64 215.06 64.8533 215.233 65.56 215.58C66.28 215.927 66.82 216.4 67.18 217C67.5533 217.6 67.74 218.273 67.74 219.02C67.74 219.9 67.52 220.62 67.08 221.18C66.64 221.727 66.1267 222.1 65.54 222.3V222.38C66.3 222.633 66.9 223.053 67.34 223.64C67.78 224.227 68 224.98 68 225.9C68 226.727 67.8067 227.46 67.42 228.1C67.0467 228.727 66.4933 229.22 65.76 229.58C65.04 229.94 64.18 230.12 63.18 230.12C61.58 230.12 60.3 229.727 59.34 228.94C58.3933 228.153 57.8933 226.967 57.84 225.38H61.16C61.1733 225.967 61.34 226.433 61.66 226.78C61.98 227.113 62.4467 227.28 63.06 227.28C63.58 227.28 63.98 227.133 64.26 226.84C64.5533 226.533 64.7 226.133 64.7 225.64C64.7 225 64.4933 224.54 64.08 224.26C63.68 223.967 63.0333 223.82 62.14 223.82H61.5V221.04H62.14C62.82 221.04 63.3667 220.927 63.78 220.7C64.2067 220.46 64.42 220.04 64.42 219.44C64.42 218.96 64.2867 218.587 64.02 218.32C63.7533 218.053 63.3867 217.92 62.92 217.92C62.4133 217.92 62.0333 218.073 61.78 218.38C61.54 218.687 61.4 219.067 61.36 219.52H58.02ZM70.0094 222.5C70.0094 220.207 70.4494 218.4 71.3294 217.08C72.2227 215.76 73.656 215.1 75.6294 215.1C77.6027 215.1 79.0294 215.76 79.9094 217.08C80.8027 218.4 81.2494 220.207 81.2494 222.5C81.2494 224.82 80.8027 226.64 79.9094 227.96C79.0294 229.28 77.6027 229.94 75.6294 229.94C73.656 229.94 72.2227 229.28 71.3294 227.96C70.4494 226.64 70.0094 224.82 70.0094 222.5ZM77.8894 222.5C77.8894 221.153 77.7427 220.12 77.4494 219.4C77.156 218.667 76.5494 218.3 75.6294 218.3C74.7094 218.3 74.1027 218.667 73.8094 219.4C73.516 220.12 73.3694 221.153 73.3694 222.5C73.3694 223.407 73.4227 224.16 73.5294 224.76C73.636 225.347 73.8494 225.827 74.1694 226.2C74.5027 226.56 74.9894 226.74 75.6294 226.74C76.2694 226.74 76.7494 226.56 77.0694 226.2C77.4027 225.827 77.6227 225.347 77.7294 224.76C77.836 224.16 77.8894 223.407 77.8894 222.5ZM82.6963 218.58V215.4H88.2363V230H84.6763V218.58H82.6963Z" fill="white"/>
<rect x="149.5" y="181.5" width="138" height="82" fill="#43D370" stroke="#38A35A" stroke-width="3"/>
<path d="M205.02 219.52C205.073 218.093 205.54 216.993 206.42 216.22C207.3 215.447 208.493 215.06 210 215.06C211 215.06 211.853 215.233 212.56 215.58C213.28 215.927 213.82 216.4 214.18 217C214.553 217.6 214.74 218.273 214.74 219.02C214.74 219.9 214.52 220.62 214.08 221.18C213.64 221.727 213.127 222.1 212.54 222.3V222.38C213.3 222.633 213.9 223.053 214.34 223.64C214.78 224.227 215 224.98 215 225.9C215 226.727 214.807 227.46 214.42 228.1C214.047 228.727 213.493 229.22 212.76 229.58C212.04 229.94 211.18 230.12 210.18 230.12C208.58 230.12 207.3 229.727 206.34 228.94C205.393 228.153 204.893 226.967 204.84 225.38H208.16C208.173 225.967 208.34 226.433 208.66 226.78C208.98 227.113 209.447 227.28 210.06 227.28C210.58 227.28 210.98 227.133 211.26 226.84C211.553 226.533 211.7 226.133 211.7 225.64C211.7 225 211.493 224.54 211.08 224.26C210.68 223.967 210.033 223.82 209.14 223.82H208.5V221.04H209.14C209.82 221.04 210.367 220.927 210.78 220.7C211.207 220.46 211.42 220.04 211.42 219.44C211.42 218.96 211.287 218.587 211.02 218.32C210.753 218.053 210.387 217.92 209.92 217.92C209.413 217.92 209.033 218.073 208.78 218.38C208.54 218.687 208.4 219.067 208.36 219.52H205.02ZM217.009 222.5C217.009 220.207 217.449 218.4 218.329 217.08C219.223 215.76 220.656 215.1 222.629 215.1C224.603 215.1 226.029 215.76 226.909 217.08C227.803 218.4 228.249 220.207 228.249 222.5C228.249 224.82 227.803 226.64 226.909 227.96C226.029 229.28 224.603 229.94 222.629 229.94C220.656 229.94 219.223 229.28 218.329 227.96C217.449 226.64 217.009 224.82 217.009 222.5ZM224.889 222.5C224.889 221.153 224.743 220.12 224.449 219.4C224.156 218.667 223.549 218.3 222.629 218.3C221.709 218.3 221.103 218.667 220.809 219.4C220.516 220.12 220.369 221.153 220.369 222.5C220.369 223.407 220.423 224.16 220.529 224.76C220.636 225.347 220.849 225.827 221.169 226.2C221.503 226.56 221.989 226.74 222.629 226.74C223.269 226.74 223.749 226.56 224.069 226.2C224.403 225.827 224.623 225.347 224.729 224.76C224.836 224.16 224.889 223.407 224.889 222.5ZM229.936 227.26C230.39 226.9 230.596 226.733 230.556 226.76C231.863 225.68 232.89 224.793 233.636 224.1C234.396 223.407 235.036 222.68 235.556 221.92C236.076 221.16 236.336 220.42 236.336 219.7C236.336 219.153 236.21 218.727 235.956 218.42C235.703 218.113 235.323 217.96 234.816 217.96C234.31 217.96 233.91 218.153 233.616 218.54C233.336 218.913 233.196 219.447 233.196 220.14H229.896C229.923 219.007 230.163 218.06 230.616 217.3C231.083 216.54 231.69 215.98 232.436 215.62C233.196 215.26 234.036 215.08 234.956 215.08C236.543 215.08 237.736 215.487 238.536 216.3C239.35 217.113 239.756 218.173 239.756 219.48C239.756 220.907 239.27 222.233 238.296 223.46C237.323 224.673 236.083 225.86 234.576 227.02H239.976V229.8H229.936V227.26Z" fill="white"/>
<rect x="297.5" y="181.5" width="138" height="82" fill="#43D370" stroke="#38A35A" stroke-width="3"/>
<path d="M351.02 219.52C351.073 218.093 351.54 216.993 352.42 216.22C353.3 215.447 354.493 215.06 356 215.06C357 215.06 357.853 215.233 358.56 215.58C359.28 215.927 359.82 216.4 360.18 217C360.553 217.6 360.74 218.273 360.74 219.02C360.74 219.9 360.52 220.62 360.08 221.18C359.64 221.727 359.127 222.1 358.54 222.3V222.38C359.3 222.633 359.9 223.053 360.34 223.64C360.78 224.227 361 224.98 361 225.9C361 226.727 360.807 227.46 360.42 228.1C360.047 228.727 359.493 229.22 358.76 229.58C358.04 229.94 357.18 230.12 356.18 230.12C354.58 230.12 353.3 229.727 352.34 228.94C351.393 228.153 350.893 226.967 350.84 225.38H354.16C354.173 225.967 354.34 226.433 354.66 226.78C354.98 227.113 355.447 227.28 356.06 227.28C356.58 227.28 356.98 227.133 357.26 226.84C357.553 226.533 357.7 226.133 357.7 225.64C357.7 225 357.493 224.54 357.08 224.26C356.68 223.967 356.033 223.82 355.14 223.82H354.5V221.04H355.14C355.82 221.04 356.367 220.927 356.78 220.7C357.207 220.46 357.42 220.04 357.42 219.44C357.42 218.96 357.287 218.587 357.02 218.32C356.753 218.053 356.387 217.92 355.92 217.92C355.413 217.92 355.033 218.073 354.78 218.38C354.54 218.687 354.4 219.067 354.36 219.52H351.02ZM363.009 222.5C363.009 220.207 363.449 218.4 364.329 217.08C365.223 215.76 366.656 215.1 368.629 215.1C370.603 215.1 372.029 215.76 372.909 217.08C373.803 218.4 374.249 220.207 374.249 222.5C374.249 224.82 373.803 226.64 372.909 227.96C372.029 229.28 370.603 229.94 368.629 229.94C366.656 229.94 365.223 229.28 364.329 227.96C363.449 226.64 363.009 224.82 363.009 222.5ZM370.889 222.5C370.889 221.153 370.743 220.12 370.449 219.4C370.156 218.667 369.549 218.3 368.629 218.3C367.709 218.3 367.103 218.667 366.809 219.4C366.516 220.12 366.369 221.153 366.369 222.5C366.369 223.407 366.423 224.16 366.529 224.76C366.636 225.347 366.849 225.827 367.169 226.2C367.503 226.56 367.989 226.74 368.629 226.74C369.269 226.74 369.749 226.56 370.069 226.2C370.403 225.827 370.623 225.347 370.729 224.76C370.836 224.16 370.889 223.407 370.889 222.5ZM376.176 219.52C376.23 218.093 376.696 216.993 377.576 216.22C378.456 215.447 379.65 215.06 381.156 215.06C382.156 215.06 383.01 215.233 383.716 215.58C384.436 215.927 384.976 216.4 385.336 217C385.71 217.6 385.896 218.273 385.896 219.02C385.896 219.9 385.676 220.62 385.236 221.18C384.796 221.727 384.283 222.1 383.696 222.3V222.38C384.456 222.633 385.056 223.053 385.496 223.64C385.936 224.227 386.156 224.98 386.156 225.9C386.156 226.727 385.963 227.46 385.576 228.1C385.203 228.727 384.65 229.22 383.916 229.58C383.196 229.94 382.336 230.12 381.336 230.12C379.736 230.12 378.456 229.727 377.496 228.94C376.55 228.153 376.05 226.967 375.996 225.38H379.316C379.33 225.967 379.496 226.433 379.816 226.78C380.136 227.113 380.603 227.28 381.216 227.28C381.736 227.28 382.136 227.133 382.416 226.84C382.71 226.533 382.856 226.133 382.856 225.64C382.856 225 382.65 224.54 382.236 224.26C381.836 223.967 381.19 223.82 380.296 223.82H379.656V221.04H380.296C380.976 221.04 381.523 220.927 381.936 220.7C382.363 220.46 382.576 220.04 382.576 219.44C382.576 218.96 382.443 218.587 382.176 218.32C381.91 218.053 381.543 217.92 381.076 217.92C380.57 217.92 380.19 218.073 379.936 218.38C379.696 218.687 379.556 219.067 379.516 219.52H376.176Z" fill="white"/>
<rect x="3" y="285" width="431" height="30" fill="#D9D9D9"/>
<path d="M179.02 297.52C179.073 296.093 179.54 294.993 180.42 294.22C181.3 293.447 182.493 293.06 184 293.06C185 293.06 185.853 293.233 186.56 293.58C187.28 293.927 187.82 294.4 188.18 295C188.553 295.6 188.74 296.273 188.74 297.02C188.74 297.9 188.52 298.62 188.08 299.18C187.64 299.727 187.127 300.1 186.54 300.3V300.38C187.3 300.633 187.9 301.053 188.34 301.64C188.78 302.227 189 302.98 189 303.9C189 304.727 188.807 305.46 188.42 306.1C188.047 306.727 187.493 307.22 186.76 307.58C186.04 307.94 185.18 308.12 184.18 308.12C182.58 308.12 181.3 307.727 180.34 306.94C179.393 306.153 178.893 304.967 178.84 303.38H182.16C182.173 303.967 182.34 304.433 182.66 304.78C182.98 305.113 183.447 305.28 184.06 305.28C184.58 305.28 184.98 305.133 185.26 304.84C185.553 304.533 185.7 304.133 185.7 303.64C185.7 303 185.493 302.54 185.08 302.26C184.68 301.967 184.033 301.82 183.14 301.82H182.5V299.04H183.14C183.82 299.04 184.367 298.927 184.78 298.7C185.207 298.46 185.42 298.04 185.42 297.44C185.42 296.96 185.287 296.587 185.02 296.32C184.753 296.053 184.387 295.92 183.92 295.92C183.413 295.92 183.033 296.073 182.78 296.38C182.54 296.687 182.4 297.067 182.36 297.52H179.02ZM194.769 298.7C195.169 298.087 195.669 297.607 196.269 297.26C196.869 296.9 197.536 296.72 198.269 296.72V300.34H197.329C196.476 300.34 195.836 300.527 195.409 300.9C194.983 301.26 194.769 301.9 194.769 302.82V308H191.349V296.84H194.769V298.7ZM199.224 302.4C199.224 301.253 199.437 300.247 199.864 299.38C200.304 298.513 200.897 297.847 201.644 297.38C202.391 296.913 203.224 296.68 204.144 296.68C204.877 296.68 205.544 296.833 206.144 297.14C206.757 297.447 207.237 297.86 207.584 298.38V293.2H211.004V308H207.584V306.4C207.264 306.933 206.804 307.36 206.204 307.68C205.617 308 204.931 308.16 204.144 308.16C203.224 308.16 202.391 307.927 201.644 307.46C200.897 306.98 200.304 306.307 199.864 305.44C199.437 304.56 199.224 303.547 199.224 302.4ZM207.584 302.42C207.584 301.567 207.344 300.893 206.864 300.4C206.397 299.907 205.824 299.66 205.144 299.66C204.464 299.66 203.884 299.907 203.404 300.4C202.937 300.88 202.704 301.547 202.704 302.4C202.704 303.253 202.937 303.933 203.404 304.44C203.884 304.933 204.464 305.18 205.144 305.18C205.824 305.18 206.397 304.933 206.864 304.44C207.344 303.947 207.584 303.273 207.584 302.42ZM226.857 293.96V296.7H221.137V299.66H225.417V302.32H221.137V308H217.717V293.96H226.857ZM232.074 293.2V308H228.654V293.2H232.074ZM239.633 308.16C238.539 308.16 237.553 307.927 236.673 307.46C235.806 306.993 235.119 306.327 234.613 305.46C234.119 304.593 233.873 303.58 233.873 302.42C233.873 301.273 234.126 300.267 234.632 299.4C235.139 298.52 235.833 297.847 236.713 297.38C237.593 296.913 238.579 296.68 239.673 296.68C240.766 296.68 241.753 296.913 242.633 297.38C243.513 297.847 244.206 298.52 244.713 299.4C245.219 300.267 245.473 301.273 245.473 302.42C245.473 303.567 245.213 304.58 244.693 305.46C244.186 306.327 243.486 306.993 242.593 307.46C241.713 307.927 240.726 308.16 239.633 308.16ZM239.633 305.2C240.286 305.2 240.839 304.96 241.293 304.48C241.759 304 241.993 303.313 241.993 302.42C241.993 301.527 241.766 300.84 241.313 300.36C240.873 299.88 240.326 299.64 239.673 299.64C239.006 299.64 238.453 299.88 238.013 300.36C237.573 300.827 237.353 301.513 237.353 302.42C237.353 303.313 237.566 304 237.993 304.48C238.433 304.96 238.979 305.2 239.633 305.2ZM252.367 308.16C251.274 308.16 250.287 307.927 249.407 307.46C248.54 306.993 247.854 306.327 247.347 305.46C246.854 304.593 246.607 303.58 246.607 302.42C246.607 301.273 246.86 300.267 247.367 299.4C247.874 298.52 248.567 297.847 249.447 297.38C250.327 296.913 251.314 296.68 252.407 296.68C253.5 296.68 254.487 296.913 255.367 297.38C256.247 297.847 256.94 298.52 257.447 299.4C257.954 300.267 258.207 301.273 258.207 302.42C258.207 303.567 257.947 304.58 257.427 305.46C256.92 306.327 256.22 306.993 255.327 307.46C254.447 307.927 253.46 308.16 252.367 308.16ZM252.367 305.2C253.02 305.2 253.574 304.96 254.027 304.48C254.494 304 254.727 303.313 254.727 302.42C254.727 301.527 254.5 300.84 254.047 300.36C253.607 299.88 253.06 299.64 252.407 299.64C251.74 299.64 251.187 299.88 250.747 300.36C250.307 300.827 250.087 301.513 250.087 302.42C250.087 303.313 250.3 304 250.727 304.48C251.167 304.96 251.714 305.2 252.367 305.2ZM263.441 298.7C263.841 298.087 264.341 297.607 264.941 297.26C265.541 296.9 266.208 296.72 266.941 296.72V300.34H266.001C265.148 300.34 264.508 300.527 264.081 300.9C263.655 301.26 263.441 301.9 263.441 302.82V308H260.021V296.84H263.441V298.7Z" fill="#2B2B2B"/>
<rect x="1.5" y="1.5" width="138" height="82" fill="#43D370" stroke="#38A35A" stroke-width="3"/>
<path d="M57.98 47.4V44.64L64.3 35.6H68.12V44.44H69.76V47.4H68.12V50H64.7V47.4H57.98ZM64.94 39.36L61.58 44.44H64.94V39.36ZM71.4352 42.5C71.4352 40.2067 71.8752 38.4 72.7552 37.08C73.6485 35.76 75.0818 35.1 77.0552 35.1C79.0285 35.1 80.4552 35.76 81.3352 37.08C82.2285 38.4 82.6752 40.2067 82.6752 42.5C82.6752 44.82 82.2285 46.64 81.3352 47.96C80.4552 49.28 79.0285 49.94 77.0552 49.94C75.0818 49.94 73.6485 49.28 72.7552 47.96C71.8752 46.64 71.4352 44.82 71.4352 42.5ZM79.3152 42.5C79.3152 41.1533 79.1685 40.12 78.8752 39.4C78.5818 38.6667 77.9752 38.3 77.0552 38.3C76.1352 38.3 75.5285 38.6667 75.2352 39.4C74.9418 40.12 74.7952 41.1533 74.7952 42.5C74.7952 43.4067 74.8485 44.16 74.9552 44.76C75.0618 45.3467 75.2752 45.8267 75.5952 46.2C75.9285 46.56 76.4152 46.74 77.0552 46.74C77.6952 46.74 78.1752 46.56 78.4952 46.2C78.8285 45.8267 79.0485 45.3467 79.1552 44.76C79.2618 44.16 79.3152 43.4067 79.3152 42.5ZM84.122 38.58V35.4H89.662V50H86.102V38.58H84.122Z" fill="white"/>
<rect x="149.5" y="1.5" width="138" height="82" fill="#43D370" stroke="#38A35A" stroke-width="3"/>
<path d="M204.98 47.4V44.64L211.3 35.6H215.12V44.44H216.76V47.4H215.12V50H211.7V47.4H204.98ZM211.94 39.36L208.58 44.44H211.94V39.36ZM218.435 42.5C218.435 40.2067 218.875 38.4 219.755 37.08C220.648 35.76 222.082 35.1 224.055 35.1C226.028 35.1 227.455 35.76 228.335 37.08C229.228 38.4 229.675 40.2067 229.675 42.5C229.675 44.82 229.228 46.64 228.335 47.96C227.455 49.28 226.028 49.94 224.055 49.94C222.082 49.94 220.648 49.28 219.755 47.96C218.875 46.64 218.435 44.82 218.435 42.5ZM226.315 42.5C226.315 41.1533 226.168 40.12 225.875 39.4C225.582 38.6667 224.975 38.3 224.055 38.3C223.135 38.3 222.528 38.6667 222.235 39.4C221.942 40.12 221.795 41.1533 221.795 42.5C221.795 43.4067 221.848 44.16 221.955 44.76C222.062 45.3467 222.275 45.8267 222.595 46.2C222.928 46.56 223.415 46.74 224.055 46.74C224.695 46.74 225.175 46.56 225.495 46.2C225.828 45.8267 226.048 45.3467 226.155 44.76C226.262 44.16 226.315 43.4067 226.315 42.5ZM231.362 47.26C231.815 46.9 232.022 46.7333 231.982 46.76C233.289 45.68 234.315 44.7933 235.062 44.1C235.822 43.4067 236.462 42.68 236.982 41.92C237.502 41.16 237.762 40.42 237.762 39.7C237.762 39.1533 237.635 38.7267 237.382 38.42C237.129 38.1133 236.749 37.96 236.242 37.96C235.735 37.96 235.335 38.1533 235.042 38.54C234.762 38.9133 234.622 39.4467 234.622 40.14H231.322C231.349 39.0067 231.589 38.06 232.042 37.3C232.509 36.54 233.115 35.98 233.862 35.62C234.622 35.26 235.462 35.08 236.382 35.08C237.969 35.08 239.162 35.4867 239.962 36.3C240.775 37.1133 241.182 38.1733 241.182 39.48C241.182 40.9067 240.695 42.2333 239.722 43.46C238.749 44.6733 237.509 45.86 236.002 47.02H241.402V49.8H231.362V47.26Z" fill="white"/>
<rect x="297.5" y="1.5" width="138" height="82" fill="#43D370" stroke="#38A35A" stroke-width="3"/>
<path d="M350.98 47.4V44.64L357.3 35.6H361.12V44.44H362.76V47.4H361.12V50H357.7V47.4H350.98ZM357.94 39.36L354.58 44.44H357.94V39.36ZM364.435 42.5C364.435 40.2067 364.875 38.4 365.755 37.08C366.648 35.76 368.082 35.1 370.055 35.1C372.028 35.1 373.455 35.76 374.335 37.08C375.228 38.4 375.675 40.2067 375.675 42.5C375.675 44.82 375.228 46.64 374.335 47.96C373.455 49.28 372.028 49.94 370.055 49.94C368.082 49.94 366.648 49.28 365.755 47.96C364.875 46.64 364.435 44.82 364.435 42.5ZM372.315 42.5C372.315 41.1533 372.168 40.12 371.875 39.4C371.582 38.6667 370.975 38.3 370.055 38.3C369.135 38.3 368.528 38.6667 368.235 39.4C367.942 40.12 367.795 41.1533 367.795 42.5C367.795 43.4067 367.848 44.16 367.955 44.76C368.062 45.3467 368.275 45.8267 368.595 46.2C368.928 46.56 369.415 46.74 370.055 46.74C370.695 46.74 371.175 46.56 371.495 46.2C371.828 45.8267 372.048 45.3467 372.155 44.76C372.262 44.16 372.315 43.4067 372.315 42.5ZM377.602 39.52C377.655 38.0933 378.122 36.9933 379.002 36.22C379.882 35.4467 381.075 35.06 382.582 35.06C383.582 35.06 384.435 35.2333 385.142 35.58C385.862 35.9267 386.402 36.4 386.762 37C387.135 37.6 387.322 38.2733 387.322 39.02C387.322 39.9 387.102 40.62 386.662 41.18C386.222 41.7267 385.709 42.1 385.122 42.3V42.38C385.882 42.6333 386.482 43.0533 386.922 43.64C387.362 44.2267 387.582 44.98 387.582 45.9C387.582 46.7267 387.389 47.46 387.002 48.1C386.629 48.7267 386.075 49.22 385.342 49.58C384.622 49.94 383.762 50.12 382.762 50.12C381.162 50.12 379.882 49.7267 378.922 48.94C377.975 48.1533 377.475 46.9667 377.422 45.38H380.742C380.755 45.9667 380.922 46.4333 381.242 46.78C381.562 47.1133 382.029 47.28 382.642 47.28C383.162 47.28 383.562 47.1333 383.842 46.84C384.135 46.5333 384.282 46.1333 384.282 45.64C384.282 45 384.075 44.54 383.662 44.26C383.262 43.9667 382.615 43.82 381.722 43.82H381.082V41.04H381.722C382.402 41.04 382.949 40.9267 383.362 40.7C383.789 40.46 384.002 40.04 384.002 39.44C384.002 38.96 383.869 38.5867 383.602 38.32C383.335 38.0533 382.969 37.92 382.502 37.92C381.995 37.92 381.615 38.0733 381.362 38.38C381.122 38.6867 380.982 39.0667 380.942 39.52H377.602Z" fill="white"/>
<rect x="3" y="106" width="431" height="30" fill="#D9D9D9"/>
<path d="M171.98 126.4V123.64L178.3 114.6H182.12V123.44H183.76V126.4H182.12V129H178.7V126.4H171.98ZM178.94 118.36L175.58 123.44H178.94V118.36ZM191.995 126.1V129H190.255C189.015 129 188.048 128.7 187.355 128.1C186.662 127.487 186.315 126.493 186.315 125.12V120.68H184.955V117.84H186.315V115.12H189.735V117.84H191.975V120.68H189.735V125.16C189.735 125.493 189.815 125.733 189.975 125.88C190.135 126.027 190.402 126.1 190.775 126.1H191.995ZM200.76 117.72C202.04 117.72 203.067 118.147 203.84 119C204.613 119.84 205 121 205 122.48V129H201.6V122.94C201.6 122.193 201.407 121.613 201.02 121.2C200.633 120.787 200.113 120.58 199.46 120.58C198.807 120.58 198.287 120.787 197.9 121.2C197.513 121.613 197.32 122.193 197.32 122.94V129H193.9V114.2H197.32V119.34C197.667 118.847 198.14 118.453 198.74 118.16C199.34 117.867 200.013 117.72 200.76 117.72ZM224.993 114.96V117.7H219.273V120.66H223.553V123.32H219.273V129H215.853V114.96H224.993ZM230.211 114.2V129H226.791V114.2H230.211ZM237.769 129.16C236.676 129.16 235.689 128.927 234.809 128.46C233.943 127.993 233.256 127.327 232.749 126.46C232.256 125.593 232.009 124.58 232.009 123.42C232.009 122.273 232.263 121.267 232.769 120.4C233.276 119.52 233.969 118.847 234.849 118.38C235.729 117.913 236.716 117.68 237.809 117.68C238.903 117.68 239.889 117.913 240.769 118.38C241.649 118.847 242.343 119.52 242.849 120.4C243.356 121.267 243.609 122.273 243.609 123.42C243.609 124.567 243.349 125.58 242.829 126.46C242.323 127.327 241.623 127.993 240.729 128.46C239.849 128.927 238.863 129.16 237.769 129.16ZM237.769 126.2C238.423 126.2 238.976 125.96 239.429 125.48C239.896 125 240.129 124.313 240.129 123.42C240.129 122.527 239.903 121.84 239.449 121.36C239.009 120.88 238.463 120.64 237.809 120.64C237.143 120.64 236.589 120.88 236.149 121.36C235.709 121.827 235.489 122.513 235.489 123.42C235.489 124.313 235.703 125 236.129 125.48C236.569 125.96 237.116 126.2 237.769 126.2ZM250.504 129.16C249.41 129.16 248.424 128.927 247.544 128.46C246.677 127.993 245.99 127.327 245.484 126.46C244.99 125.593 244.744 124.58 244.744 123.42C244.744 122.273 244.997 121.267 245.504 120.4C246.01 119.52 246.704 118.847 247.584 118.38C248.464 117.913 249.45 117.68 250.544 117.68C251.637 117.68 252.624 117.913 253.504 118.38C254.384 118.847 255.077 119.52 255.584 120.4C256.09 121.267 256.344 122.273 256.344 123.42C256.344 124.567 256.084 125.58 255.564 126.46C255.057 127.327 254.357 127.993 253.464 128.46C252.584 128.927 251.597 129.16 250.504 129.16ZM250.504 126.2C251.157 126.2 251.71 125.96 252.164 125.48C252.63 125 252.864 124.313 252.864 123.42C252.864 122.527 252.637 121.84 252.184 121.36C251.744 120.88 251.197 120.64 250.544 120.64C249.877 120.64 249.324 120.88 248.884 121.36C248.444 121.827 248.224 122.513 248.224 123.42C248.224 124.313 248.437 125 248.864 125.48C249.304 125.96 249.85 126.2 250.504 126.2ZM261.578 119.7C261.978 119.087 262.478 118.607 263.078 118.26C263.678 117.9 264.345 117.72 265.078 117.72V121.34H264.138C263.285 121.34 262.645 121.527 262.218 121.9C261.791 122.26 261.578 122.9 261.578 123.82V129H258.158V117.84H261.578V119.7Z" fill="#2B2B2B"/>
</svg>
