<svg width="437" height="119" viewBox="0 0 437 119" fill="none" xmlns="http://www.w3.org/2000/svg">
<rect x="1.5" y="1.5" width="95" height="63" fill="#43D370" stroke="#38A35A" stroke-width="3"/>
<rect x="340.5" y="1.5" width="95" height="63" fill="#43D370" stroke="#38A35A" stroke-width="3"/>
<rect x="227.5" y="1.5" width="95" height="63" fill="#43D370" stroke="#38A35A" stroke-width="3"/>
<rect x="114.5" y="1.5" width="95" height="63" fill="#EDBD42" stroke="#CFA53A" stroke-width="3"/>
<path d="M35.54 28.58V25.4H41.08V40H37.52V28.58H35.54ZM43.4195 32.5C43.4195 30.2067 43.8595 28.4 44.7395 27.08C45.6329 25.76 47.0662 25.1 49.0395 25.1C51.0129 25.1 52.4395 25.76 53.3195 27.08C54.2129 28.4 54.6595 30.2067 54.6595 32.5C54.6595 34.82 54.2129 36.64 53.3195 37.96C52.4395 39.28 51.0129 39.94 49.0395 39.94C47.0662 39.94 45.6329 39.28 44.7395 37.96C43.8595 36.64 43.4195 34.82 43.4195 32.5ZM51.2995 32.5C51.2995 31.1533 51.1529 30.12 50.8595 29.4C50.5662 28.6667 49.9595 28.3 49.0395 28.3C48.1195 28.3 47.5129 28.6667 47.2195 29.4C46.9262 30.12 46.7795 31.1533 46.7795 32.5C46.7795 33.4067 46.8329 34.16 46.9395 34.76C47.0462 35.3467 47.2595 35.8267 47.5795 36.2C47.9129 36.56 48.3995 36.74 49.0395 36.74C49.6795 36.74 50.1595 36.56 50.4795 36.2C50.8129 35.8267 51.0329 35.3467 51.1395 34.76C51.2462 34.16 51.2995 33.4067 51.2995 32.5ZM56.1064 28.58V25.4H61.6464V40H58.0864V28.58H56.1064Z" fill="white"/>
<path d="M260.54 28.58V25.4H266.08V40H262.52V28.58H260.54ZM268.42 32.5C268.42 30.2067 268.86 28.4 269.74 27.08C270.633 25.76 272.066 25.1 274.04 25.1C276.013 25.1 277.44 25.76 278.32 27.08C279.213 28.4 279.66 30.2067 279.66 32.5C279.66 34.82 279.213 36.64 278.32 37.96C277.44 39.28 276.013 39.94 274.04 39.94C272.066 39.94 270.633 39.28 269.74 37.96C268.86 36.64 268.42 34.82 268.42 32.5ZM276.3 32.5C276.3 31.1533 276.153 30.12 275.86 29.4C275.566 28.6667 274.96 28.3 274.04 28.3C273.12 28.3 272.513 28.6667 272.22 29.4C271.926 30.12 271.78 31.1533 271.78 32.5C271.78 33.4067 271.833 34.16 271.94 34.76C272.046 35.3467 272.26 35.8267 272.58 36.2C272.913 36.56 273.4 36.74 274.04 36.74C274.68 36.74 275.16 36.56 275.48 36.2C275.813 35.8267 276.033 35.3467 276.14 34.76C276.246 34.16 276.3 33.4067 276.3 32.5ZM281.346 37.26C281.8 36.9 282.006 36.7333 281.966 36.76C283.273 35.68 284.3 34.7933 285.046 34.1C285.806 33.4067 286.446 32.68 286.966 31.92C287.486 31.16 287.746 30.42 287.746 29.7C287.746 29.1533 287.62 28.7267 287.366 28.42C287.113 28.1133 286.733 27.96 286.226 27.96C285.72 27.96 285.32 28.1533 285.026 28.54C284.746 28.9133 284.606 29.4467 284.606 30.14H281.306C281.333 29.0067 281.573 28.06 282.026 27.3C282.493 26.54 283.1 25.98 283.846 25.62C284.606 25.26 285.446 25.08 286.366 25.08C287.953 25.08 289.146 25.4867 289.946 26.3C290.76 27.1133 291.166 28.1733 291.166 29.48C291.166 30.9067 290.68 32.2333 289.706 33.46C288.733 34.6733 287.493 35.86 285.986 37.02H291.386V39.8H281.346V37.26Z" fill="white"/>
<path d="M374.54 28.58V25.4H380.08V40H376.52V28.58H374.54ZM382.42 32.5C382.42 30.2067 382.86 28.4 383.74 27.08C384.633 25.76 386.066 25.1 388.04 25.1C390.013 25.1 391.44 25.76 392.32 27.08C393.213 28.4 393.66 30.2067 393.66 32.5C393.66 34.82 393.213 36.64 392.32 37.96C391.44 39.28 390.013 39.94 388.04 39.94C386.066 39.94 384.633 39.28 383.74 37.96C382.86 36.64 382.42 34.82 382.42 32.5ZM390.3 32.5C390.3 31.1533 390.153 30.12 389.86 29.4C389.566 28.6667 388.96 28.3 388.04 28.3C387.12 28.3 386.513 28.6667 386.22 29.4C385.926 30.12 385.78 31.1533 385.78 32.5C385.78 33.4067 385.833 34.16 385.94 34.76C386.046 35.3467 386.26 35.8267 386.58 36.2C386.913 36.56 387.4 36.74 388.04 36.74C388.68 36.74 389.16 36.56 389.48 36.2C389.813 35.8267 390.033 35.3467 390.14 34.76C390.246 34.16 390.3 33.4067 390.3 32.5ZM395.586 29.52C395.64 28.0933 396.106 26.9933 396.986 26.22C397.866 25.4467 399.06 25.06 400.566 25.06C401.566 25.06 402.42 25.2333 403.126 25.58C403.846 25.9267 404.386 26.4 404.746 27C405.12 27.6 405.306 28.2733 405.306 29.02C405.306 29.9 405.086 30.62 404.646 31.18C404.206 31.7267 403.693 32.1 403.106 32.3V32.38C403.866 32.6333 404.466 33.0533 404.906 33.64C405.346 34.2267 405.566 34.98 405.566 35.9C405.566 36.7267 405.373 37.46 404.986 38.1C404.613 38.7267 404.06 39.22 403.326 39.58C402.606 39.94 401.746 40.12 400.746 40.12C399.146 40.12 397.866 39.7267 396.906 38.94C395.96 38.1533 395.46 36.9667 395.406 35.38H398.726C398.74 35.9667 398.906 36.4333 399.226 36.78C399.546 37.1133 400.013 37.28 400.626 37.28C401.146 37.28 401.546 37.1333 401.826 36.84C402.12 36.5333 402.266 36.1333 402.266 35.64C402.266 35 402.06 34.54 401.646 34.26C401.246 33.9667 400.6 33.82 399.706 33.82H399.066V31.04H399.706C400.386 31.04 400.933 30.9267 401.346 30.7C401.773 30.46 401.986 30.04 401.986 29.44C401.986 28.96 401.853 28.5867 401.586 28.32C401.32 28.0533 400.953 27.92 400.486 27.92C399.98 27.92 399.6 28.0733 399.346 28.38C399.106 28.6867 398.966 29.0667 398.926 29.52H395.586Z" fill="white"/>
<rect x="3" y="88" width="431" height="30" fill="#D9D9D9"/>
<path d="M178.54 99.58V96.4H184.08V111H180.52V99.58H178.54ZM191.3 111.16C190.326 111.16 189.46 110.993 188.7 110.66C187.94 110.327 187.34 109.873 186.9 109.3C186.46 108.713 186.213 108.06 186.16 107.34H189.54C189.58 107.727 189.76 108.04 190.08 108.28C190.4 108.52 190.793 108.64 191.26 108.64C191.686 108.64 192.013 108.56 192.24 108.4C192.48 108.227 192.6 108.007 192.6 107.74C192.6 107.42 192.433 107.187 192.1 107.04C191.766 106.88 191.226 106.707 190.48 106.52C189.68 106.333 189.013 106.14 188.48 105.94C187.946 105.727 187.486 105.4 187.1 104.96C186.713 104.507 186.52 103.9 186.52 103.14C186.52 102.5 186.693 101.92 187.04 101.4C187.4 100.867 187.92 100.447 188.6 100.14C189.293 99.8333 190.113 99.68 191.06 99.68C192.46 99.68 193.56 100.027 194.36 100.72C195.173 101.413 195.64 102.333 195.76 103.48H192.6C192.546 103.093 192.373 102.787 192.08 102.56C191.8 102.333 191.426 102.22 190.96 102.22C190.56 102.22 190.253 102.3 190.04 102.46C189.826 102.607 189.72 102.813 189.72 103.08C189.72 103.4 189.886 103.64 190.22 103.8C190.566 103.96 191.1 104.12 191.82 104.28C192.646 104.493 193.32 104.707 193.84 104.92C194.36 105.12 194.813 105.453 195.2 105.92C195.6 106.373 195.806 106.987 195.82 107.76C195.82 108.413 195.633 109 195.26 109.52C194.9 110.027 194.373 110.427 193.68 110.72C193 111.013 192.206 111.16 191.3 111.16ZM204.132 108.1V111H202.392C201.152 111 200.185 110.7 199.492 110.1C198.799 109.487 198.452 108.493 198.452 107.12V102.68H197.092V99.84H198.452V97.12H201.872V99.84H204.112V102.68H201.872V107.16C201.872 107.493 201.952 107.733 202.112 107.88C202.272 108.027 202.539 108.1 202.912 108.1H204.132ZM219.415 96.96V99.7H213.695V102.66H217.975V105.32H213.695V111H210.275V96.96H219.415ZM224.633 96.2V111H221.213V96.2H224.633ZM232.191 111.16C231.098 111.16 230.111 110.927 229.231 110.46C228.364 109.993 227.678 109.327 227.171 108.46C226.678 107.593 226.431 106.58 226.431 105.42C226.431 104.273 226.684 103.267 227.191 102.4C227.698 101.52 228.391 100.847 229.271 100.38C230.151 99.9133 231.138 99.68 232.231 99.68C233.324 99.68 234.311 99.9133 235.191 100.38C236.071 100.847 236.764 101.52 237.271 102.4C237.778 103.267 238.031 104.273 238.031 105.42C238.031 106.567 237.771 107.58 237.251 108.46C236.744 109.327 236.044 109.993 235.151 110.46C234.271 110.927 233.284 111.16 232.191 111.16ZM232.191 108.2C232.844 108.2 233.398 107.96 233.851 107.48C234.318 107 234.551 106.313 234.551 105.42C234.551 104.527 234.324 103.84 233.871 103.36C233.431 102.88 232.884 102.64 232.231 102.64C231.564 102.64 231.011 102.88 230.571 103.36C230.131 103.827 229.911 104.513 229.911 105.42C229.911 106.313 230.124 107 230.551 107.48C230.991 107.96 231.538 108.2 232.191 108.2ZM244.925 111.16C243.832 111.16 242.845 110.927 241.965 110.46C241.099 109.993 240.412 109.327 239.905 108.46C239.412 107.593 239.165 106.58 239.165 105.42C239.165 104.273 239.419 103.267 239.925 102.4C240.432 101.52 241.125 100.847 242.005 100.38C242.885 99.9133 243.872 99.68 244.965 99.68C246.059 99.68 247.045 99.9133 247.925 100.38C248.805 100.847 249.499 101.52 250.005 102.4C250.512 103.267 250.765 104.273 250.765 105.42C250.765 106.567 250.505 107.58 249.985 108.46C249.479 109.327 248.779 109.993 247.885 110.46C247.005 110.927 246.019 111.16 244.925 111.16ZM244.925 108.2C245.579 108.2 246.132 107.96 246.585 107.48C247.052 107 247.285 106.313 247.285 105.42C247.285 104.527 247.059 103.84 246.605 103.36C246.165 102.88 245.619 102.64 244.965 102.64C244.299 102.64 243.745 102.88 243.305 103.36C242.865 103.827 242.645 104.513 242.645 105.42C242.645 106.313 242.859 107 243.285 107.48C243.725 107.96 244.272 108.2 244.925 108.2ZM256 101.7C256.4 101.087 256.9 100.607 257.5 100.26C258.1 99.9 258.767 99.72 259.5 99.72V103.34H258.56C257.707 103.34 257.067 103.527 256.64 103.9C256.213 104.26 256 104.9 256 105.82V111H252.58V99.84H256V101.7Z" fill="#2B2B2B"/>
</svg>
