<svg width="437" height="137" viewBox="0 0 437 137" fill="none" xmlns="http://www.w3.org/2000/svg">
<rect x="1.5" y="1.5" width="138" height="82" fill="#43D370" stroke="#38A35A" stroke-width="3"/>
<path d="M57.98 47.4V44.64L64.3 35.6H68.12V44.44H69.76V47.4H68.12V50H64.7V47.4H57.98ZM64.94 39.36L61.58 44.44H64.94V39.36ZM71.4352 42.5C71.4352 40.2067 71.8752 38.4 72.7552 37.08C73.6485 35.76 75.0818 35.1 77.0552 35.1C79.0285 35.1 80.4552 35.76 81.3352 37.08C82.2285 38.4 82.6752 40.2067 82.6752 42.5C82.6752 44.82 82.2285 46.64 81.3352 47.96C80.4552 49.28 79.0285 49.94 77.0552 49.94C75.0818 49.94 73.6485 49.28 72.7552 47.96C71.8752 46.64 71.4352 44.82 71.4352 42.5ZM79.3152 42.5C79.3152 41.1533 79.1685 40.12 78.8752 39.4C78.5818 38.6667 77.9752 38.3 77.0552 38.3C76.1352 38.3 75.5285 38.6667 75.2352 39.4C74.9418 40.12 74.7952 41.1533 74.7952 42.5C74.7952 43.4067 74.8485 44.16 74.9552 44.76C75.0618 45.3467 75.2752 45.8267 75.5952 46.2C75.9285 46.56 76.4152 46.74 77.0552 46.74C77.6952 46.74 78.1752 46.56 78.4952 46.2C78.8285 45.8267 79.0485 45.3467 79.1552 44.76C79.2618 44.16 79.3152 43.4067 79.3152 42.5ZM84.122 38.58V35.4H89.662V50H86.102V38.58H84.122Z" fill="white"/>
<rect x="149.5" y="1.5" width="138" height="82" fill="#43D370" stroke="#38A35A" stroke-width="3"/>
<path d="M204.98 47.4V44.64L211.3 35.6H215.12V44.44H216.76V47.4H215.12V50H211.7V47.4H204.98ZM211.94 39.36L208.58 44.44H211.94V39.36ZM218.435 42.5C218.435 40.2067 218.875 38.4 219.755 37.08C220.648 35.76 222.082 35.1 224.055 35.1C226.028 35.1 227.455 35.76 228.335 37.08C229.228 38.4 229.675 40.2067 229.675 42.5C229.675 44.82 229.228 46.64 228.335 47.96C227.455 49.28 226.028 49.94 224.055 49.94C222.082 49.94 220.648 49.28 219.755 47.96C218.875 46.64 218.435 44.82 218.435 42.5ZM226.315 42.5C226.315 41.1533 226.168 40.12 225.875 39.4C225.582 38.6667 224.975 38.3 224.055 38.3C223.135 38.3 222.528 38.6667 222.235 39.4C221.942 40.12 221.795 41.1533 221.795 42.5C221.795 43.4067 221.848 44.16 221.955 44.76C222.062 45.3467 222.275 45.8267 222.595 46.2C222.928 46.56 223.415 46.74 224.055 46.74C224.695 46.74 225.175 46.56 225.495 46.2C225.828 45.8267 226.048 45.3467 226.155 44.76C226.262 44.16 226.315 43.4067 226.315 42.5ZM231.362 47.26C231.815 46.9 232.022 46.7333 231.982 46.76C233.289 45.68 234.315 44.7933 235.062 44.1C235.822 43.4067 236.462 42.68 236.982 41.92C237.502 41.16 237.762 40.42 237.762 39.7C237.762 39.1533 237.635 38.7267 237.382 38.42C237.129 38.1133 236.749 37.96 236.242 37.96C235.735 37.96 235.335 38.1533 235.042 38.54C234.762 38.9133 234.622 39.4467 234.622 40.14H231.322C231.349 39.0067 231.589 38.06 232.042 37.3C232.509 36.54 233.115 35.98 233.862 35.62C234.622 35.26 235.462 35.08 236.382 35.08C237.969 35.08 239.162 35.4867 239.962 36.3C240.775 37.1133 241.182 38.1733 241.182 39.48C241.182 40.9067 240.695 42.2333 239.722 43.46C238.749 44.6733 237.509 45.86 236.002 47.02H241.402V49.8H231.362V47.26Z" fill="white"/>
<rect x="297.5" y="1.5" width="138" height="82" fill="#43D370" stroke="#38A35A" stroke-width="3"/>
<path d="M350.98 47.4V44.64L357.3 35.6H361.12V44.44H362.76V47.4H361.12V50H357.7V47.4H350.98ZM357.94 39.36L354.58 44.44H357.94V39.36ZM364.435 42.5C364.435 40.2067 364.875 38.4 365.755 37.08C366.648 35.76 368.082 35.1 370.055 35.1C372.028 35.1 373.455 35.76 374.335 37.08C375.228 38.4 375.675 40.2067 375.675 42.5C375.675 44.82 375.228 46.64 374.335 47.96C373.455 49.28 372.028 49.94 370.055 49.94C368.082 49.94 366.648 49.28 365.755 47.96C364.875 46.64 364.435 44.82 364.435 42.5ZM372.315 42.5C372.315 41.1533 372.168 40.12 371.875 39.4C371.582 38.6667 370.975 38.3 370.055 38.3C369.135 38.3 368.528 38.6667 368.235 39.4C367.942 40.12 367.795 41.1533 367.795 42.5C367.795 43.4067 367.848 44.16 367.955 44.76C368.062 45.3467 368.275 45.8267 368.595 46.2C368.928 46.56 369.415 46.74 370.055 46.74C370.695 46.74 371.175 46.56 371.495 46.2C371.828 45.8267 372.048 45.3467 372.155 44.76C372.262 44.16 372.315 43.4067 372.315 42.5ZM377.602 39.52C377.655 38.0933 378.122 36.9933 379.002 36.22C379.882 35.4467 381.075 35.06 382.582 35.06C383.582 35.06 384.435 35.2333 385.142 35.58C385.862 35.9267 386.402 36.4 386.762 37C387.135 37.6 387.322 38.2733 387.322 39.02C387.322 39.9 387.102 40.62 386.662 41.18C386.222 41.7267 385.709 42.1 385.122 42.3V42.38C385.882 42.6333 386.482 43.0533 386.922 43.64C387.362 44.2267 387.582 44.98 387.582 45.9C387.582 46.7267 387.389 47.46 387.002 48.1C386.629 48.7267 386.075 49.22 385.342 49.58C384.622 49.94 383.762 50.12 382.762 50.12C381.162 50.12 379.882 49.7267 378.922 48.94C377.975 48.1533 377.475 46.9667 377.422 45.38H380.742C380.755 45.9667 380.922 46.4333 381.242 46.78C381.562 47.1133 382.029 47.28 382.642 47.28C383.162 47.28 383.562 47.1333 383.842 46.84C384.135 46.5333 384.282 46.1333 384.282 45.64C384.282 45 384.075 44.54 383.662 44.26C383.262 43.9667 382.615 43.82 381.722 43.82H381.082V41.04H381.722C382.402 41.04 382.949 40.9267 383.362 40.7C383.789 40.46 384.002 40.04 384.002 39.44C384.002 38.96 383.869 38.5867 383.602 38.32C383.335 38.0533 382.969 37.92 382.502 37.92C381.995 37.92 381.615 38.0733 381.362 38.38C381.122 38.6867 380.982 39.0667 380.942 39.52H377.602Z" fill="white"/>
<rect x="3" y="106" width="431" height="30" fill="#D9D9D9"/>
<path d="M171.98 126.4V123.64L178.3 114.6H182.12V123.44H183.76V126.4H182.12V129H178.7V126.4H171.98ZM178.94 118.36L175.58 123.44H178.94V118.36ZM191.995 126.1V129H190.255C189.015 129 188.048 128.7 187.355 128.1C186.662 127.487 186.315 126.493 186.315 125.12V120.68H184.955V117.84H186.315V115.12H189.735V117.84H191.975V120.68H189.735V125.16C189.735 125.493 189.815 125.733 189.975 125.88C190.135 126.027 190.402 126.1 190.775 126.1H191.995ZM200.76 117.72C202.04 117.72 203.067 118.147 203.84 119C204.613 119.84 205 121 205 122.48V129H201.6V122.94C201.6 122.193 201.407 121.613 201.02 121.2C200.633 120.787 200.113 120.58 199.46 120.58C198.807 120.58 198.287 120.787 197.9 121.2C197.513 121.613 197.32 122.193 197.32 122.94V129H193.9V114.2H197.32V119.34C197.667 118.847 198.14 118.453 198.74 118.16C199.34 117.867 200.013 117.72 200.76 117.72ZM224.993 114.96V117.7H219.273V120.66H223.553V123.32H219.273V129H215.853V114.96H224.993ZM230.211 114.2V129H226.791V114.2H230.211ZM237.769 129.16C236.676 129.16 235.689 128.927 234.809 128.46C233.943 127.993 233.256 127.327 232.749 126.46C232.256 125.593 232.009 124.58 232.009 123.42C232.009 122.273 232.263 121.267 232.769 120.4C233.276 119.52 233.969 118.847 234.849 118.38C235.729 117.913 236.716 117.68 237.809 117.68C238.903 117.68 239.889 117.913 240.769 118.38C241.649 118.847 242.343 119.52 242.849 120.4C243.356 121.267 243.609 122.273 243.609 123.42C243.609 124.567 243.349 125.58 242.829 126.46C242.323 127.327 241.623 127.993 240.729 128.46C239.849 128.927 238.863 129.16 237.769 129.16ZM237.769 126.2C238.423 126.2 238.976 125.96 239.429 125.48C239.896 125 240.129 124.313 240.129 123.42C240.129 122.527 239.903 121.84 239.449 121.36C239.009 120.88 238.463 120.64 237.809 120.64C237.143 120.64 236.589 120.88 236.149 121.36C235.709 121.827 235.489 122.513 235.489 123.42C235.489 124.313 235.703 125 236.129 125.48C236.569 125.96 237.116 126.2 237.769 126.2ZM250.504 129.16C249.41 129.16 248.424 128.927 247.544 128.46C246.677 127.993 245.99 127.327 245.484 126.46C244.99 125.593 244.744 124.58 244.744 123.42C244.744 122.273 244.997 121.267 245.504 120.4C246.01 119.52 246.704 118.847 247.584 118.38C248.464 117.913 249.45 117.68 250.544 117.68C251.637 117.68 252.624 117.913 253.504 118.38C254.384 118.847 255.077 119.52 255.584 120.4C256.09 121.267 256.344 122.273 256.344 123.42C256.344 124.567 256.084 125.58 255.564 126.46C255.057 127.327 254.357 127.993 253.464 128.46C252.584 128.927 251.597 129.16 250.504 129.16ZM250.504 126.2C251.157 126.2 251.71 125.96 252.164 125.48C252.63 125 252.864 124.313 252.864 123.42C252.864 122.527 252.637 121.84 252.184 121.36C251.744 120.88 251.197 120.64 250.544 120.64C249.877 120.64 249.324 120.88 248.884 121.36C248.444 121.827 248.224 122.513 248.224 123.42C248.224 124.313 248.437 125 248.864 125.48C249.304 125.96 249.85 126.2 250.504 126.2ZM261.578 119.7C261.978 119.087 262.478 118.607 263.078 118.26C263.678 117.9 264.345 117.72 265.078 117.72V121.34H264.138C263.285 121.34 262.645 121.527 262.218 121.9C261.791 122.26 261.578 122.9 261.578 123.82V129H258.158V117.84H261.578V119.7Z" fill="#2B2B2B"/>
</svg>
