<svg width="437" height="135" viewBox="0 0 437 135" fill="none" xmlns="http://www.w3.org/2000/svg">
<rect x="1.5" y="1.5" width="138" height="82" fill="#43D370" stroke="#38A35A" stroke-width="3"/>
<path d="M57.78 47.26C58.2333 46.9 58.44 46.7333 58.4 46.76C59.7067 45.68 60.7333 44.7933 61.48 44.1C62.24 43.4067 62.88 42.68 63.4 41.92C63.92 41.16 64.18 40.42 64.18 39.7C64.18 39.1533 64.0533 38.7267 63.8 38.42C63.5467 38.1133 63.1667 37.96 62.66 37.96C62.1533 37.96 61.7533 38.1533 61.46 38.54C61.18 38.9133 61.04 39.4467 61.04 40.14H57.74C57.7667 39.0067 58.0067 38.06 58.46 37.3C58.9267 36.54 59.5333 35.98 60.28 35.62C61.04 35.26 61.88 35.08 62.8 35.08C64.3867 35.08 65.58 35.4867 66.38 36.3C67.1933 37.1133 67.6 38.1733 67.6 39.48C67.6 40.9067 67.1133 42.2333 66.14 43.46C65.1667 44.6733 63.9267 45.86 62.42 47.02H67.82V49.8H57.78V47.26ZM69.3258 42.5C69.3258 40.2067 69.7658 38.4 70.6458 37.08C71.5391 35.76 72.9724 35.1 74.9458 35.1C76.9191 35.1 78.3458 35.76 79.2258 37.08C80.1191 38.4 80.5658 40.2067 80.5658 42.5C80.5658 44.82 80.1191 46.64 79.2258 47.96C78.3458 49.28 76.9191 49.94 74.9458 49.94C72.9724 49.94 71.5391 49.28 70.6458 47.96C69.7658 46.64 69.3258 44.82 69.3258 42.5ZM77.2058 42.5C77.2058 41.1533 77.0591 40.12 76.7658 39.4C76.4724 38.6667 75.8658 38.3 74.9458 38.3C74.0258 38.3 73.4191 38.6667 73.1258 39.4C72.8324 40.12 72.6858 41.1533 72.6858 42.5C72.6858 43.4067 72.7391 44.16 72.8458 44.76C72.9524 45.3467 73.1658 45.8267 73.4858 46.2C73.8191 46.56 74.3058 46.74 74.9458 46.74C75.5858 46.74 76.0658 46.56 76.3858 46.2C76.7191 45.8267 76.9391 45.3467 77.0458 44.76C77.1524 44.16 77.2058 43.4067 77.2058 42.5ZM82.0127 38.58V35.4H87.5527V50H83.9927V38.58H82.0127Z" fill="white"/>
<rect x="149.5" y="1.5" width="138" height="82" fill="#43D370" stroke="#38A35A" stroke-width="3"/>
<path d="M204.78 47.26C205.233 46.9 205.44 46.7333 205.4 46.76C206.707 45.68 207.733 44.7933 208.48 44.1C209.24 43.4067 209.88 42.68 210.4 41.92C210.92 41.16 211.18 40.42 211.18 39.7C211.18 39.1533 211.053 38.7267 210.8 38.42C210.547 38.1133 210.167 37.96 209.66 37.96C209.153 37.96 208.753 38.1533 208.46 38.54C208.18 38.9133 208.04 39.4467 208.04 40.14H204.74C204.767 39.0067 205.007 38.06 205.46 37.3C205.927 36.54 206.533 35.98 207.28 35.62C208.04 35.26 208.88 35.08 209.8 35.08C211.387 35.08 212.58 35.4867 213.38 36.3C214.193 37.1133 214.6 38.1733 214.6 39.48C214.6 40.9067 214.113 42.2333 213.14 43.46C212.167 44.6733 210.927 45.86 209.42 47.02H214.82V49.8H204.78V47.26ZM216.326 42.5C216.326 40.2067 216.766 38.4 217.646 37.08C218.539 35.76 219.972 35.1 221.946 35.1C223.919 35.1 225.346 35.76 226.226 37.08C227.119 38.4 227.566 40.2067 227.566 42.5C227.566 44.82 227.119 46.64 226.226 47.96C225.346 49.28 223.919 49.94 221.946 49.94C219.972 49.94 218.539 49.28 217.646 47.96C216.766 46.64 216.326 44.82 216.326 42.5ZM224.206 42.5C224.206 41.1533 224.059 40.12 223.766 39.4C223.472 38.6667 222.866 38.3 221.946 38.3C221.026 38.3 220.419 38.6667 220.126 39.4C219.832 40.12 219.686 41.1533 219.686 42.5C219.686 43.4067 219.739 44.16 219.846 44.76C219.952 45.3467 220.166 45.8267 220.486 46.2C220.819 46.56 221.306 46.74 221.946 46.74C222.586 46.74 223.066 46.56 223.386 46.2C223.719 45.8267 223.939 45.3467 224.046 44.76C224.152 44.16 224.206 43.4067 224.206 42.5ZM229.253 47.26C229.706 46.9 229.913 46.7333 229.873 46.76C231.179 45.68 232.206 44.7933 232.953 44.1C233.713 43.4067 234.353 42.68 234.873 41.92C235.393 41.16 235.653 40.42 235.653 39.7C235.653 39.1533 235.526 38.7267 235.273 38.42C235.019 38.1133 234.639 37.96 234.133 37.96C233.626 37.96 233.226 38.1533 232.933 38.54C232.653 38.9133 232.513 39.4467 232.513 40.14H229.213C229.239 39.0067 229.479 38.06 229.933 37.3C230.399 36.54 231.006 35.98 231.753 35.62C232.513 35.26 233.353 35.08 234.273 35.08C235.859 35.08 237.053 35.4867 237.853 36.3C238.666 37.1133 239.073 38.1733 239.073 39.48C239.073 40.9067 238.586 42.2333 237.613 43.46C236.639 44.6733 235.399 45.86 233.893 47.02H239.293V49.8H229.253V47.26Z" fill="white"/>
<rect x="297.5" y="1.5" width="138" height="82" fill="#43D370" stroke="#38A35A" stroke-width="3"/>
<path d="M350.78 47.26C351.233 46.9 351.44 46.7333 351.4 46.76C352.707 45.68 353.733 44.7933 354.48 44.1C355.24 43.4067 355.88 42.68 356.4 41.92C356.92 41.16 357.18 40.42 357.18 39.7C357.18 39.1533 357.053 38.7267 356.8 38.42C356.547 38.1133 356.167 37.96 355.66 37.96C355.153 37.96 354.753 38.1533 354.46 38.54C354.18 38.9133 354.04 39.4467 354.04 40.14H350.74C350.767 39.0067 351.007 38.06 351.46 37.3C351.927 36.54 352.533 35.98 353.28 35.62C354.04 35.26 354.88 35.08 355.8 35.08C357.387 35.08 358.58 35.4867 359.38 36.3C360.193 37.1133 360.6 38.1733 360.6 39.48C360.6 40.9067 360.113 42.2333 359.14 43.46C358.167 44.6733 356.927 45.86 355.42 47.02H360.82V49.8H350.78V47.26ZM362.326 42.5C362.326 40.2067 362.766 38.4 363.646 37.08C364.539 35.76 365.972 35.1 367.946 35.1C369.919 35.1 371.346 35.76 372.226 37.08C373.119 38.4 373.566 40.2067 373.566 42.5C373.566 44.82 373.119 46.64 372.226 47.96C371.346 49.28 369.919 49.94 367.946 49.94C365.972 49.94 364.539 49.28 363.646 47.96C362.766 46.64 362.326 44.82 362.326 42.5ZM370.206 42.5C370.206 41.1533 370.059 40.12 369.766 39.4C369.472 38.6667 368.866 38.3 367.946 38.3C367.026 38.3 366.419 38.6667 366.126 39.4C365.832 40.12 365.686 41.1533 365.686 42.5C365.686 43.4067 365.739 44.16 365.846 44.76C365.952 45.3467 366.166 45.8267 366.486 46.2C366.819 46.56 367.306 46.74 367.946 46.74C368.586 46.74 369.066 46.56 369.386 46.2C369.719 45.8267 369.939 45.3467 370.046 44.76C370.152 44.16 370.206 43.4067 370.206 42.5ZM375.493 39.52C375.546 38.0933 376.013 36.9933 376.893 36.22C377.773 35.4467 378.966 35.06 380.473 35.06C381.473 35.06 382.326 35.2333 383.033 35.58C383.753 35.9267 384.293 36.4 384.653 37C385.026 37.6 385.213 38.2733 385.213 39.02C385.213 39.9 384.993 40.62 384.553 41.18C384.113 41.7267 383.599 42.1 383.013 42.3V42.38C383.773 42.6333 384.373 43.0533 384.813 43.64C385.253 44.2267 385.473 44.98 385.473 45.9C385.473 46.7267 385.279 47.46 384.893 48.1C384.519 48.7267 383.966 49.22 383.233 49.58C382.513 49.94 381.653 50.12 380.653 50.12C379.053 50.12 377.773 49.7267 376.813 48.94C375.866 48.1533 375.366 46.9667 375.313 45.38H378.633C378.646 45.9667 378.813 46.4333 379.133 46.78C379.453 47.1133 379.919 47.28 380.533 47.28C381.053 47.28 381.453 47.1333 381.733 46.84C382.026 46.5333 382.173 46.1333 382.173 45.64C382.173 45 381.966 44.54 381.553 44.26C381.153 43.9667 380.506 43.82 379.613 43.82H378.973V41.04H379.613C380.293 41.04 380.839 40.9267 381.253 40.7C381.679 40.46 381.893 40.04 381.893 39.44C381.893 38.96 381.759 38.5867 381.493 38.32C381.226 38.0533 380.859 37.92 380.393 37.92C379.886 37.92 379.506 38.0733 379.253 38.38C379.013 38.6867 378.873 39.0667 378.833 39.52H375.493Z" fill="white"/>
<rect x="3" y="105" width="431" height="30" fill="#D9D9D9"/>
<path d="M172.78 123.26C173.233 122.9 173.44 122.733 173.4 122.76C174.707 121.68 175.733 120.793 176.48 120.1C177.24 119.407 177.88 118.68 178.4 117.92C178.92 117.16 179.18 116.42 179.18 115.7C179.18 115.153 179.053 114.727 178.8 114.42C178.547 114.113 178.167 113.96 177.66 113.96C177.153 113.96 176.753 114.153 176.46 114.54C176.18 114.913 176.04 115.447 176.04 116.14H172.74C172.767 115.007 173.007 114.06 173.46 113.3C173.927 112.54 174.533 111.98 175.28 111.62C176.04 111.26 176.88 111.08 177.8 111.08C179.387 111.08 180.58 111.487 181.38 112.3C182.193 113.113 182.6 114.173 182.6 115.48C182.6 116.907 182.113 118.233 181.14 119.46C180.167 120.673 178.927 121.86 177.42 123.02H182.82V125.8H172.78V123.26ZM191.466 114.72C192.772 114.72 193.812 115.147 194.586 116C195.372 116.84 195.766 118 195.766 119.48V126H192.366V119.94C192.366 119.193 192.172 118.613 191.786 118.2C191.399 117.787 190.879 117.58 190.226 117.58C189.572 117.58 189.052 117.787 188.666 118.2C188.279 118.613 188.086 119.193 188.086 119.94V126H184.666V114.84H188.086V116.32C188.432 115.827 188.899 115.44 189.486 115.16C190.072 114.867 190.732 114.72 191.466 114.72ZM197.462 120.4C197.462 119.253 197.676 118.247 198.102 117.38C198.542 116.513 199.136 115.847 199.882 115.38C200.629 114.913 201.462 114.68 202.382 114.68C203.116 114.68 203.782 114.833 204.382 115.14C204.996 115.447 205.476 115.86 205.822 116.38V111.2H209.242V126H205.822V124.4C205.502 124.933 205.042 125.36 204.442 125.68C203.856 126 203.169 126.16 202.382 126.16C201.462 126.16 200.629 125.927 199.882 125.46C199.136 124.98 198.542 124.307 198.102 123.44C197.676 122.56 197.462 121.547 197.462 120.4ZM205.822 120.42C205.822 119.567 205.582 118.893 205.102 118.4C204.636 117.907 204.062 117.66 203.382 117.66C202.702 117.66 202.122 117.907 201.642 118.4C201.176 118.88 200.942 119.547 200.942 120.4C200.942 121.253 201.176 121.933 201.642 122.44C202.122 122.933 202.702 123.18 203.382 123.18C204.062 123.18 204.636 122.933 205.102 122.44C205.582 121.947 205.822 121.273 205.822 120.42ZM225.095 111.96V114.7H219.375V117.66H223.655V120.32H219.375V126H215.955V111.96H225.095ZM230.312 111.2V126H226.892V111.2H230.312ZM237.871 126.16C236.777 126.16 235.791 125.927 234.911 125.46C234.044 124.993 233.357 124.327 232.851 123.46C232.357 122.593 232.111 121.58 232.111 120.42C232.111 119.273 232.364 118.267 232.871 117.4C233.377 116.52 234.071 115.847 234.951 115.38C235.831 114.913 236.817 114.68 237.911 114.68C239.004 114.68 239.991 114.913 240.871 115.38C241.751 115.847 242.444 116.52 242.951 117.4C243.457 118.267 243.711 119.273 243.711 120.42C243.711 121.567 243.451 122.58 242.931 123.46C242.424 124.327 241.724 124.993 240.831 125.46C239.951 125.927 238.964 126.16 237.871 126.16ZM237.871 123.2C238.524 123.2 239.077 122.96 239.531 122.48C239.997 122 240.231 121.313 240.231 120.42C240.231 119.527 240.004 118.84 239.551 118.36C239.111 117.88 238.564 117.64 237.911 117.64C237.244 117.64 236.691 117.88 236.251 118.36C235.811 118.827 235.591 119.513 235.591 120.42C235.591 121.313 235.804 122 236.231 122.48C236.671 122.96 237.217 123.2 237.871 123.2ZM250.605 126.16C249.512 126.16 248.525 125.927 247.645 125.46C246.778 124.993 246.092 124.327 245.585 123.46C245.092 122.593 244.845 121.58 244.845 120.42C244.845 119.273 245.098 118.267 245.605 117.4C246.112 116.52 246.805 115.847 247.685 115.38C248.565 114.913 249.552 114.68 250.645 114.68C251.738 114.68 252.725 114.913 253.605 115.38C254.485 115.847 255.178 116.52 255.685 117.4C256.192 118.267 256.445 119.273 256.445 120.42C256.445 121.567 256.185 122.58 255.665 123.46C255.158 124.327 254.458 124.993 253.565 125.46C252.685 125.927 251.698 126.16 250.605 126.16ZM250.605 123.2C251.258 123.2 251.812 122.96 252.265 122.48C252.732 122 252.965 121.313 252.965 120.42C252.965 119.527 252.738 118.84 252.285 118.36C251.845 117.88 251.298 117.64 250.645 117.64C249.978 117.64 249.425 117.88 248.985 118.36C248.545 118.827 248.325 119.513 248.325 120.42C248.325 121.313 248.538 122 248.965 122.48C249.405 122.96 249.952 123.2 250.605 123.2ZM261.68 116.7C262.08 116.087 262.58 115.607 263.18 115.26C263.78 114.9 264.446 114.72 265.18 114.72V118.34H264.24C263.386 118.34 262.746 118.527 262.32 118.9C261.893 119.26 261.68 119.9 261.68 120.82V126H258.26V114.84H261.68V116.7Z" fill="#2B2B2B"/>
</svg>
