<svg width="437" height="136" viewBox="0 0 437 136" fill="none" xmlns="http://www.w3.org/2000/svg">
<rect x="1.5" y="1.5" width="138" height="82" fill="#43D370" stroke="#38A35A" stroke-width="3"/>
<path d="M58.02 39.52C58.0733 38.0933 58.54 36.9933 59.42 36.22C60.3 35.4467 61.4933 35.06 63 35.06C64 35.06 64.8533 35.2333 65.56 35.58C66.28 35.9267 66.82 36.4 67.18 37C67.5533 37.6 67.74 38.2733 67.74 39.02C67.74 39.9 67.52 40.62 67.08 41.18C66.64 41.7267 66.1267 42.1 65.54 42.3V42.38C66.3 42.6333 66.9 43.0533 67.34 43.64C67.78 44.2267 68 44.98 68 45.9C68 46.7267 67.8067 47.46 67.42 48.1C67.0467 48.7267 66.4933 49.22 65.76 49.58C65.04 49.94 64.18 50.12 63.18 50.12C61.58 50.12 60.3 49.7267 59.34 48.94C58.3933 48.1533 57.8933 46.9667 57.84 45.38H61.16C61.1733 45.9667 61.34 46.4333 61.66 46.78C61.98 47.1133 62.4467 47.28 63.06 47.28C63.58 47.28 63.98 47.1333 64.26 46.84C64.5533 46.5333 64.7 46.1333 64.7 45.64C64.7 45 64.4933 44.54 64.08 44.26C63.68 43.9667 63.0333 43.82 62.14 43.82H61.5V41.04H62.14C62.82 41.04 63.3667 40.9267 63.78 40.7C64.2067 40.46 64.42 40.04 64.42 39.44C64.42 38.96 64.2867 38.5867 64.02 38.32C63.7533 38.0533 63.3867 37.92 62.92 37.92C62.4133 37.92 62.0333 38.0733 61.78 38.38C61.54 38.6867 61.4 39.0667 61.36 39.52H58.02ZM70.0094 42.5C70.0094 40.2067 70.4494 38.4 71.3294 37.08C72.2227 35.76 73.656 35.1 75.6294 35.1C77.6027 35.1 79.0294 35.76 79.9094 37.08C80.8027 38.4 81.2494 40.2067 81.2494 42.5C81.2494 44.82 80.8027 46.64 79.9094 47.96C79.0294 49.28 77.6027 49.94 75.6294 49.94C73.656 49.94 72.2227 49.28 71.3294 47.96C70.4494 46.64 70.0094 44.82 70.0094 42.5ZM77.8894 42.5C77.8894 41.1533 77.7427 40.12 77.4494 39.4C77.156 38.6667 76.5494 38.3 75.6294 38.3C74.7094 38.3 74.1027 38.6667 73.8094 39.4C73.516 40.12 73.3694 41.1533 73.3694 42.5C73.3694 43.4067 73.4227 44.16 73.5294 44.76C73.636 45.3467 73.8494 45.8267 74.1694 46.2C74.5027 46.56 74.9894 46.74 75.6294 46.74C76.2694 46.74 76.7494 46.56 77.0694 46.2C77.4027 45.8267 77.6227 45.3467 77.7294 44.76C77.836 44.16 77.8894 43.4067 77.8894 42.5ZM82.6963 38.58V35.4H88.2363V50H84.6763V38.58H82.6963Z" fill="white"/>
<rect x="149.5" y="1.5" width="138" height="82" fill="#43D370" stroke="#38A35A" stroke-width="3"/>
<path d="M205.02 39.52C205.073 38.0933 205.54 36.9933 206.42 36.22C207.3 35.4467 208.493 35.06 210 35.06C211 35.06 211.853 35.2333 212.56 35.58C213.28 35.9267 213.82 36.4 214.18 37C214.553 37.6 214.74 38.2733 214.74 39.02C214.74 39.9 214.52 40.62 214.08 41.18C213.64 41.7267 213.127 42.1 212.54 42.3V42.38C213.3 42.6333 213.9 43.0533 214.34 43.64C214.78 44.2267 215 44.98 215 45.9C215 46.7267 214.807 47.46 214.42 48.1C214.047 48.7267 213.493 49.22 212.76 49.58C212.04 49.94 211.18 50.12 210.18 50.12C208.58 50.12 207.3 49.7267 206.34 48.94C205.393 48.1533 204.893 46.9667 204.84 45.38H208.16C208.173 45.9667 208.34 46.4333 208.66 46.78C208.98 47.1133 209.447 47.28 210.06 47.28C210.58 47.28 210.98 47.1333 211.26 46.84C211.553 46.5333 211.7 46.1333 211.7 45.64C211.7 45 211.493 44.54 211.08 44.26C210.68 43.9667 210.033 43.82 209.14 43.82H208.5V41.04H209.14C209.82 41.04 210.367 40.9267 210.78 40.7C211.207 40.46 211.42 40.04 211.42 39.44C211.42 38.96 211.287 38.5867 211.02 38.32C210.753 38.0533 210.387 37.92 209.92 37.92C209.413 37.92 209.033 38.0733 208.78 38.38C208.54 38.6867 208.4 39.0667 208.36 39.52H205.02ZM217.009 42.5C217.009 40.2067 217.449 38.4 218.329 37.08C219.223 35.76 220.656 35.1 222.629 35.1C224.603 35.1 226.029 35.76 226.909 37.08C227.803 38.4 228.249 40.2067 228.249 42.5C228.249 44.82 227.803 46.64 226.909 47.96C226.029 49.28 224.603 49.94 222.629 49.94C220.656 49.94 219.223 49.28 218.329 47.96C217.449 46.64 217.009 44.82 217.009 42.5ZM224.889 42.5C224.889 41.1533 224.743 40.12 224.449 39.4C224.156 38.6667 223.549 38.3 222.629 38.3C221.709 38.3 221.103 38.6667 220.809 39.4C220.516 40.12 220.369 41.1533 220.369 42.5C220.369 43.4067 220.423 44.16 220.529 44.76C220.636 45.3467 220.849 45.8267 221.169 46.2C221.503 46.56 221.989 46.74 222.629 46.74C223.269 46.74 223.749 46.56 224.069 46.2C224.403 45.8267 224.623 45.3467 224.729 44.76C224.836 44.16 224.889 43.4067 224.889 42.5ZM229.936 47.26C230.39 46.9 230.596 46.7333 230.556 46.76C231.863 45.68 232.89 44.7933 233.636 44.1C234.396 43.4067 235.036 42.68 235.556 41.92C236.076 41.16 236.336 40.42 236.336 39.7C236.336 39.1533 236.21 38.7267 235.956 38.42C235.703 38.1133 235.323 37.96 234.816 37.96C234.31 37.96 233.91 38.1533 233.616 38.54C233.336 38.9133 233.196 39.4467 233.196 40.14H229.896C229.923 39.0067 230.163 38.06 230.616 37.3C231.083 36.54 231.69 35.98 232.436 35.62C233.196 35.26 234.036 35.08 234.956 35.08C236.543 35.08 237.736 35.4867 238.536 36.3C239.35 37.1133 239.756 38.1733 239.756 39.48C239.756 40.9067 239.27 42.2333 238.296 43.46C237.323 44.6733 236.083 45.86 234.576 47.02H239.976V49.8H229.936V47.26Z" fill="white"/>
<rect x="297.5" y="1.5" width="138" height="82" fill="#43D370" stroke="#38A35A" stroke-width="3"/>
<path d="M351.02 39.52C351.073 38.0933 351.54 36.9933 352.42 36.22C353.3 35.4467 354.493 35.06 356 35.06C357 35.06 357.853 35.2333 358.56 35.58C359.28 35.9267 359.82 36.4 360.18 37C360.553 37.6 360.74 38.2733 360.74 39.02C360.74 39.9 360.52 40.62 360.08 41.18C359.64 41.7267 359.127 42.1 358.54 42.3V42.38C359.3 42.6333 359.9 43.0533 360.34 43.64C360.78 44.2267 361 44.98 361 45.9C361 46.7267 360.807 47.46 360.42 48.1C360.047 48.7267 359.493 49.22 358.76 49.58C358.04 49.94 357.18 50.12 356.18 50.12C354.58 50.12 353.3 49.7267 352.34 48.94C351.393 48.1533 350.893 46.9667 350.84 45.38H354.16C354.173 45.9667 354.34 46.4333 354.66 46.78C354.98 47.1133 355.447 47.28 356.06 47.28C356.58 47.28 356.98 47.1333 357.26 46.84C357.553 46.5333 357.7 46.1333 357.7 45.64C357.7 45 357.493 44.54 357.08 44.26C356.68 43.9667 356.033 43.82 355.14 43.82H354.5V41.04H355.14C355.82 41.04 356.367 40.9267 356.78 40.7C357.207 40.46 357.42 40.04 357.42 39.44C357.42 38.96 357.287 38.5867 357.02 38.32C356.753 38.0533 356.387 37.92 355.92 37.92C355.413 37.92 355.033 38.0733 354.78 38.38C354.54 38.6867 354.4 39.0667 354.36 39.52H351.02ZM363.009 42.5C363.009 40.2067 363.449 38.4 364.329 37.08C365.223 35.76 366.656 35.1 368.629 35.1C370.603 35.1 372.029 35.76 372.909 37.08C373.803 38.4 374.249 40.2067 374.249 42.5C374.249 44.82 373.803 46.64 372.909 47.96C372.029 49.28 370.603 49.94 368.629 49.94C366.656 49.94 365.223 49.28 364.329 47.96C363.449 46.64 363.009 44.82 363.009 42.5ZM370.889 42.5C370.889 41.1533 370.743 40.12 370.449 39.4C370.156 38.6667 369.549 38.3 368.629 38.3C367.709 38.3 367.103 38.6667 366.809 39.4C366.516 40.12 366.369 41.1533 366.369 42.5C366.369 43.4067 366.423 44.16 366.529 44.76C366.636 45.3467 366.849 45.8267 367.169 46.2C367.503 46.56 367.989 46.74 368.629 46.74C369.269 46.74 369.749 46.56 370.069 46.2C370.403 45.8267 370.623 45.3467 370.729 44.76C370.836 44.16 370.889 43.4067 370.889 42.5ZM376.176 39.52C376.23 38.0933 376.696 36.9933 377.576 36.22C378.456 35.4467 379.65 35.06 381.156 35.06C382.156 35.06 383.01 35.2333 383.716 35.58C384.436 35.9267 384.976 36.4 385.336 37C385.71 37.6 385.896 38.2733 385.896 39.02C385.896 39.9 385.676 40.62 385.236 41.18C384.796 41.7267 384.283 42.1 383.696 42.3V42.38C384.456 42.6333 385.056 43.0533 385.496 43.64C385.936 44.2267 386.156 44.98 386.156 45.9C386.156 46.7267 385.963 47.46 385.576 48.1C385.203 48.7267 384.65 49.22 383.916 49.58C383.196 49.94 382.336 50.12 381.336 50.12C379.736 50.12 378.456 49.7267 377.496 48.94C376.55 48.1533 376.05 46.9667 375.996 45.38H379.316C379.33 45.9667 379.496 46.4333 379.816 46.78C380.136 47.1133 380.603 47.28 381.216 47.28C381.736 47.28 382.136 47.1333 382.416 46.84C382.71 46.5333 382.856 46.1333 382.856 45.64C382.856 45 382.65 44.54 382.236 44.26C381.836 43.9667 381.19 43.82 380.296 43.82H379.656V41.04H380.296C380.976 41.04 381.523 40.9267 381.936 40.7C382.363 40.46 382.576 40.04 382.576 39.44C382.576 38.96 382.443 38.5867 382.176 38.32C381.91 38.0533 381.543 37.92 381.076 37.92C380.57 37.92 380.19 38.0733 379.936 38.38C379.696 38.6867 379.556 39.0667 379.516 39.52H376.176Z" fill="white"/>
<rect x="3" y="105" width="431" height="30" fill="#D9D9D9"/>
<path d="M179.02 117.52C179.073 116.093 179.54 114.993 180.42 114.22C181.3 113.447 182.493 113.06 184 113.06C185 113.06 185.853 113.233 186.56 113.58C187.28 113.927 187.82 114.4 188.18 115C188.553 115.6 188.74 116.273 188.74 117.02C188.74 117.9 188.52 118.62 188.08 119.18C187.64 119.727 187.127 120.1 186.54 120.3V120.38C187.3 120.633 187.9 121.053 188.34 121.64C188.78 122.227 189 122.98 189 123.9C189 124.727 188.807 125.46 188.42 126.1C188.047 126.727 187.493 127.22 186.76 127.58C186.04 127.94 185.18 128.12 184.18 128.12C182.58 128.12 181.3 127.727 180.34 126.94C179.393 126.153 178.893 124.967 178.84 123.38H182.16C182.173 123.967 182.34 124.433 182.66 124.78C182.98 125.113 183.447 125.28 184.06 125.28C184.58 125.28 184.98 125.133 185.26 124.84C185.553 124.533 185.7 124.133 185.7 123.64C185.7 123 185.493 122.54 185.08 122.26C184.68 121.967 184.033 121.82 183.14 121.82H182.5V119.04H183.14C183.82 119.04 184.367 118.927 184.78 118.7C185.207 118.46 185.42 118.04 185.42 117.44C185.42 116.96 185.287 116.587 185.02 116.32C184.753 116.053 184.387 115.92 183.92 115.92C183.413 115.92 183.033 116.073 182.78 116.38C182.54 116.687 182.4 117.067 182.36 117.52H179.02ZM194.769 118.7C195.169 118.087 195.669 117.607 196.269 117.26C196.869 116.9 197.536 116.72 198.269 116.72V120.34H197.329C196.476 120.34 195.836 120.527 195.409 120.9C194.983 121.26 194.769 121.9 194.769 122.82V128H191.349V116.84H194.769V118.7ZM199.224 122.4C199.224 121.253 199.437 120.247 199.864 119.38C200.304 118.513 200.897 117.847 201.644 117.38C202.391 116.913 203.224 116.68 204.144 116.68C204.877 116.68 205.544 116.833 206.144 117.14C206.757 117.447 207.237 117.86 207.584 118.38V113.2H211.004V128H207.584V126.4C207.264 126.933 206.804 127.36 206.204 127.68C205.617 128 204.931 128.16 204.144 128.16C203.224 128.16 202.391 127.927 201.644 127.46C200.897 126.98 200.304 126.307 199.864 125.44C199.437 124.56 199.224 123.547 199.224 122.4ZM207.584 122.42C207.584 121.567 207.344 120.893 206.864 120.4C206.397 119.907 205.824 119.66 205.144 119.66C204.464 119.66 203.884 119.907 203.404 120.4C202.937 120.88 202.704 121.547 202.704 122.4C202.704 123.253 202.937 123.933 203.404 124.44C203.884 124.933 204.464 125.18 205.144 125.18C205.824 125.18 206.397 124.933 206.864 124.44C207.344 123.947 207.584 123.273 207.584 122.42ZM226.857 113.96V116.7H221.137V119.66H225.417V122.32H221.137V128H217.717V113.96H226.857ZM232.074 113.2V128H228.654V113.2H232.074ZM239.633 128.16C238.539 128.16 237.553 127.927 236.673 127.46C235.806 126.993 235.119 126.327 234.613 125.46C234.119 124.593 233.873 123.58 233.873 122.42C233.873 121.273 234.126 120.267 234.632 119.4C235.139 118.52 235.833 117.847 236.713 117.38C237.593 116.913 238.579 116.68 239.673 116.68C240.766 116.68 241.753 116.913 242.633 117.38C243.513 117.847 244.206 118.52 244.713 119.4C245.219 120.267 245.473 121.273 245.473 122.42C245.473 123.567 245.213 124.58 244.693 125.46C244.186 126.327 243.486 126.993 242.593 127.46C241.713 127.927 240.726 128.16 239.633 128.16ZM239.633 125.2C240.286 125.2 240.839 124.96 241.293 124.48C241.759 124 241.993 123.313 241.993 122.42C241.993 121.527 241.766 120.84 241.313 120.36C240.873 119.88 240.326 119.64 239.673 119.64C239.006 119.64 238.453 119.88 238.013 120.36C237.573 120.827 237.353 121.513 237.353 122.42C237.353 123.313 237.566 124 237.993 124.48C238.433 124.96 238.979 125.2 239.633 125.2ZM252.367 128.16C251.274 128.16 250.287 127.927 249.407 127.46C248.54 126.993 247.854 126.327 247.347 125.46C246.854 124.593 246.607 123.58 246.607 122.42C246.607 121.273 246.86 120.267 247.367 119.4C247.874 118.52 248.567 117.847 249.447 117.38C250.327 116.913 251.314 116.68 252.407 116.68C253.5 116.68 254.487 116.913 255.367 117.38C256.247 117.847 256.94 118.52 257.447 119.4C257.954 120.267 258.207 121.273 258.207 122.42C258.207 123.567 257.947 124.58 257.427 125.46C256.92 126.327 256.22 126.993 255.327 127.46C254.447 127.927 253.46 128.16 252.367 128.16ZM252.367 125.2C253.02 125.2 253.574 124.96 254.027 124.48C254.494 124 254.727 123.313 254.727 122.42C254.727 121.527 254.5 120.84 254.047 120.36C253.607 119.88 253.06 119.64 252.407 119.64C251.74 119.64 251.187 119.88 250.747 120.36C250.307 120.827 250.087 121.513 250.087 122.42C250.087 123.313 250.3 124 250.727 124.48C251.167 124.96 251.714 125.2 252.367 125.2ZM263.441 118.7C263.841 118.087 264.341 117.607 264.941 117.26C265.541 116.9 266.208 116.72 266.941 116.72V120.34H266.001C265.148 120.34 264.508 120.527 264.081 120.9C263.655 121.26 263.441 121.9 263.441 122.82V128H260.021V116.84H263.441V118.7Z" fill="#2B2B2B"/>
</svg>
