<svg width="440" height="424" viewBox="0 0 440 424" fill="none" xmlns="http://www.w3.org/2000/svg">
<rect x="1.5" y="1.5" width="133" height="133" fill="#43D370" stroke="#38A35A" stroke-width="3"/>
<path d="M42.7086 45.96V60H39.2886V54.22H33.9686V60H30.5486V45.96H33.9686V51.46H39.2886V45.96H42.7086ZM44.4975 54.4C44.4975 53.2533 44.7108 52.2467 45.1375 51.38C45.5775 50.5133 46.1708 49.8467 46.9175 49.38C47.6642 48.9133 48.4975 48.68 49.4175 48.68C50.2042 48.68 50.8908 48.84 51.4775 49.16C52.0775 49.48 52.5375 49.9 52.8575 50.42V48.84H56.2775V60H52.8575V58.42C52.5242 58.94 52.0575 59.36 51.4575 59.68C50.8708 60 50.1842 60.16 49.3975 60.16C48.4908 60.16 47.6642 59.9267 46.9175 59.46C46.1708 58.98 45.5775 58.3067 45.1375 57.44C44.7108 56.56 44.4975 55.5467 44.4975 54.4ZM52.8575 54.42C52.8575 53.5667 52.6175 52.8933 52.1375 52.4C51.6708 51.9067 51.0975 51.66 50.4175 51.66C49.7375 51.66 49.1575 51.9067 48.6775 52.4C48.2108 52.88 47.9775 53.5467 47.9775 54.4C47.9775 55.2533 48.2108 55.9333 48.6775 56.44C49.1575 56.9333 49.7375 57.18 50.4175 57.18C51.0975 57.18 51.6708 56.9333 52.1375 56.44C52.6175 55.9467 52.8575 55.2733 52.8575 54.42ZM65.5517 48.72C66.8584 48.72 67.8984 49.1467 68.6717 50C69.4584 50.84 69.8517 52 69.8517 53.48V60H66.4517V53.94C66.4517 53.1933 66.2584 52.6133 65.8717 52.2C65.4851 51.7867 64.9651 51.58 64.3117 51.58C63.6584 51.58 63.1384 51.7867 62.7517 52.2C62.3651 52.6133 62.1717 53.1933 62.1717 53.94V60H58.7517V48.84H62.1717V50.32C62.5184 49.8267 62.9851 49.44 63.5717 49.16C64.1584 48.8667 64.8184 48.72 65.5517 48.72ZM76.4683 48.68C77.2549 48.68 77.9416 48.84 78.5283 49.16C79.1283 49.48 79.5883 49.9 79.9083 50.42V48.84H83.3283V59.98C83.3283 61.0067 83.1216 61.9333 82.7083 62.76C82.3083 63.6 81.6883 64.2667 80.8483 64.76C80.0216 65.2533 78.9883 65.5 77.7483 65.5C76.0949 65.5 74.7549 65.1067 73.7283 64.32C72.7016 63.5467 72.1149 62.4933 71.9683 61.16H75.3483C75.4549 61.5867 75.7083 61.92 76.1083 62.16C76.5083 62.4133 77.0016 62.54 77.5883 62.54C78.2949 62.54 78.8549 62.3333 79.2683 61.92C79.6949 61.52 79.9083 60.8733 79.9083 59.98V58.4C79.5749 58.92 79.1149 59.3467 78.5283 59.68C77.9416 60 77.2549 60.16 76.4683 60.16C75.5483 60.16 74.7149 59.9267 73.9683 59.46C73.2216 58.98 72.6283 58.3067 72.1883 57.44C71.7616 56.56 71.5483 55.5467 71.5483 54.4C71.5483 53.2533 71.7616 52.2467 72.1883 51.38C72.6283 50.5133 73.2216 49.8467 73.9683 49.38C74.7149 48.9133 75.5483 48.68 76.4683 48.68ZM79.9083 54.42C79.9083 53.5667 79.6683 52.8933 79.1883 52.4C78.7216 51.9067 78.1483 51.66 77.4683 51.66C76.7883 51.66 76.2083 51.9067 75.7283 52.4C75.2616 52.88 75.0283 53.5467 75.0283 54.4C75.0283 55.2533 75.2616 55.9333 75.7283 56.44C76.2083 56.9333 76.7883 57.18 77.4683 57.18C78.1483 57.18 78.7216 56.9333 79.1883 56.44C79.6683 55.9467 79.9083 55.2733 79.9083 54.42ZM85.1225 54.4C85.1225 53.2533 85.3358 52.2467 85.7625 51.38C86.2025 50.5133 86.7958 49.8467 87.5425 49.38C88.2892 48.9133 89.1225 48.68 90.0425 48.68C90.8292 48.68 91.5158 48.84 92.1025 49.16C92.7025 49.48 93.1625 49.9 93.4825 50.42V48.84H96.9025V60H93.4825V58.42C93.1492 58.94 92.6825 59.36 92.0825 59.68C91.4958 60 90.8092 60.16 90.0225 60.16C89.1158 60.16 88.2892 59.9267 87.5425 59.46C86.7958 58.98 86.2025 58.3067 85.7625 57.44C85.3358 56.56 85.1225 55.5467 85.1225 54.4ZM93.4825 54.42C93.4825 53.5667 93.2425 52.8933 92.7625 52.4C92.2958 51.9067 91.7225 51.66 91.0425 51.66C90.3625 51.66 89.7825 51.9067 89.3025 52.4C88.8358 52.88 88.6025 53.5467 88.6025 54.4C88.6025 55.2533 88.8358 55.9333 89.3025 56.44C89.7825 56.9333 90.3625 57.18 91.0425 57.18C91.7225 57.18 92.2958 56.9333 92.7625 56.44C93.2425 55.9467 93.4825 55.2733 93.4825 54.42ZM102.797 50.7C103.197 50.0867 103.697 49.6067 104.297 49.26C104.897 48.9 105.563 48.72 106.297 48.72V52.34H105.357C104.503 52.34 103.863 52.5267 103.437 52.9C103.01 53.26 102.797 53.9 102.797 54.82V60H99.3767V48.84H102.797V50.7ZM62.9653 79.52C63.0186 78.0933 63.4853 76.9933 64.3653 76.22C65.2453 75.4467 66.4386 75.06 67.9453 75.06C68.9453 75.06 69.7986 75.2333 70.5053 75.58C71.2253 75.9267 71.7653 76.4 72.1253 77C72.4986 77.6 72.6853 78.2733 72.6853 79.02C72.6853 79.9 72.4653 80.62 72.0253 81.18C71.5853 81.7267 71.072 82.1 70.4853 82.3V82.38C71.2453 82.6333 71.8453 83.0533 72.2853 83.64C72.7253 84.2267 72.9453 84.98 72.9453 85.9C72.9453 86.7267 72.752 87.46 72.3653 88.1C71.992 88.7267 71.4386 89.22 70.7053 89.58C69.9853 89.94 69.1253 90.12 68.1253 90.12C66.5253 90.12 65.2453 89.7267 64.2853 88.94C63.3386 88.1533 62.8386 86.9667 62.7853 85.38H66.1053C66.1186 85.9667 66.2853 86.4333 66.6053 86.78C66.9253 87.1133 67.392 87.28 68.0053 87.28C68.5253 87.28 68.9253 87.1333 69.2053 86.84C69.4986 86.5333 69.6453 86.1333 69.6453 85.64C69.6453 85 69.4386 84.54 69.0253 84.26C68.6253 83.9667 67.9786 83.82 67.0853 83.82H66.4453V81.04H67.0853C67.7653 81.04 68.312 80.9267 68.7253 80.7C69.152 80.46 69.3653 80.04 69.3653 79.44C69.3653 78.96 69.232 78.5867 68.9653 78.32C68.6986 78.0533 68.332 77.92 67.8653 77.92C67.3586 77.92 66.9786 78.0733 66.7253 78.38C66.4853 78.6867 66.3453 79.0667 66.3053 79.52H62.9653Z" fill="white"/>
<rect x="1.5" y="145.5" width="133" height="133" fill="#43D370" stroke="#38A35A" stroke-width="3"/>
<path d="M43.2086 189.96V204H39.7886V198.22H34.4686V204H31.0486V189.96H34.4686V195.46H39.7886V189.96H43.2086ZM44.9975 198.4C44.9975 197.253 45.2108 196.247 45.6375 195.38C46.0775 194.513 46.6708 193.847 47.4175 193.38C48.1642 192.913 48.9975 192.68 49.9175 192.68C50.7042 192.68 51.3908 192.84 51.9775 193.16C52.5775 193.48 53.0375 193.9 53.3575 194.42V192.84H56.7775V204H53.3575V202.42C53.0242 202.94 52.5575 203.36 51.9575 203.68C51.3708 204 50.6842 204.16 49.8975 204.16C48.9908 204.16 48.1642 203.927 47.4175 203.46C46.6708 202.98 46.0775 202.307 45.6375 201.44C45.2108 200.56 44.9975 199.547 44.9975 198.4ZM53.3575 198.42C53.3575 197.567 53.1175 196.893 52.6375 196.4C52.1708 195.907 51.5975 195.66 50.9175 195.66C50.2375 195.66 49.6575 195.907 49.1775 196.4C48.7108 196.88 48.4775 197.547 48.4775 198.4C48.4775 199.253 48.7108 199.933 49.1775 200.44C49.6575 200.933 50.2375 201.18 50.9175 201.18C51.5975 201.18 52.1708 200.933 52.6375 200.44C53.1175 199.947 53.3575 199.273 53.3575 198.42ZM66.0517 192.72C67.3584 192.72 68.3984 193.147 69.1717 194C69.9584 194.84 70.3517 196 70.3517 197.48V204H66.9517V197.94C66.9517 197.193 66.7584 196.613 66.3717 196.2C65.9851 195.787 65.4651 195.58 64.8117 195.58C64.1584 195.58 63.6384 195.787 63.2517 196.2C62.8651 196.613 62.6717 197.193 62.6717 197.94V204H59.2517V192.84H62.6717V194.32C63.0184 193.827 63.4851 193.44 64.0717 193.16C64.6584 192.867 65.3184 192.72 66.0517 192.72ZM76.9683 192.68C77.7549 192.68 78.4416 192.84 79.0283 193.16C79.6283 193.48 80.0883 193.9 80.4083 194.42V192.84H83.8283V203.98C83.8283 205.007 83.6216 205.933 83.2083 206.76C82.8083 207.6 82.1883 208.267 81.3483 208.76C80.5216 209.253 79.4883 209.5 78.2483 209.5C76.5949 209.5 75.2549 209.107 74.2283 208.32C73.2016 207.547 72.6149 206.493 72.4683 205.16H75.8483C75.9549 205.587 76.2083 205.92 76.6083 206.16C77.0083 206.413 77.5016 206.54 78.0883 206.54C78.7949 206.54 79.3549 206.333 79.7683 205.92C80.1949 205.52 80.4083 204.873 80.4083 203.98V202.4C80.0749 202.92 79.6149 203.347 79.0283 203.68C78.4416 204 77.7549 204.16 76.9683 204.16C76.0483 204.16 75.2149 203.927 74.4683 203.46C73.7216 202.98 73.1283 202.307 72.6883 201.44C72.2616 200.56 72.0483 199.547 72.0483 198.4C72.0483 197.253 72.2616 196.247 72.6883 195.38C73.1283 194.513 73.7216 193.847 74.4683 193.38C75.2149 192.913 76.0483 192.68 76.9683 192.68ZM80.4083 198.42C80.4083 197.567 80.1683 196.893 79.6883 196.4C79.2216 195.907 78.6483 195.66 77.9683 195.66C77.2883 195.66 76.7083 195.907 76.2283 196.4C75.7616 196.88 75.5283 197.547 75.5283 198.4C75.5283 199.253 75.7616 199.933 76.2283 200.44C76.7083 200.933 77.2883 201.18 77.9683 201.18C78.6483 201.18 79.2216 200.933 79.6883 200.44C80.1683 199.947 80.4083 199.273 80.4083 198.42ZM85.6225 198.4C85.6225 197.253 85.8358 196.247 86.2625 195.38C86.7025 194.513 87.2958 193.847 88.0425 193.38C88.7892 192.913 89.6225 192.68 90.5425 192.68C91.3292 192.68 92.0158 192.84 92.6025 193.16C93.2025 193.48 93.6625 193.9 93.9825 194.42V192.84H97.4025V204H93.9825V202.42C93.6492 202.94 93.1825 203.36 92.5825 203.68C91.9958 204 91.3092 204.16 90.5225 204.16C89.6158 204.16 88.7892 203.927 88.0425 203.46C87.2958 202.98 86.7025 202.307 86.2625 201.44C85.8358 200.56 85.6225 199.547 85.6225 198.4ZM93.9825 198.42C93.9825 197.567 93.7425 196.893 93.2625 196.4C92.7958 195.907 92.2225 195.66 91.5425 195.66C90.8625 195.66 90.2825 195.907 89.8025 196.4C89.3358 196.88 89.1025 197.547 89.1025 198.4C89.1025 199.253 89.3358 199.933 89.8025 200.44C90.2825 200.933 90.8625 201.18 91.5425 201.18C92.2225 201.18 92.7958 200.933 93.2625 200.44C93.7425 199.947 93.9825 199.273 93.9825 198.42ZM103.297 194.7C103.697 194.087 104.197 193.607 104.797 193.26C105.397 192.9 106.063 192.72 106.797 192.72V196.34H105.857C105.003 196.34 104.363 196.527 103.937 196.9C103.51 197.26 103.297 197.9 103.297 198.82V204H99.8767V192.84H103.297V194.7ZM63.5671 231.26C64.0204 230.9 64.2271 230.733 64.1871 230.76C65.4938 229.68 66.5204 228.793 67.2671 228.1C68.0271 227.407 68.6671 226.68 69.1871 225.92C69.7071 225.16 69.9671 224.42 69.9671 223.7C69.9671 223.153 69.8404 222.727 69.5871 222.42C69.3338 222.113 68.9538 221.96 68.4471 221.96C67.9404 221.96 67.5404 222.153 67.2471 222.54C66.9671 222.913 66.8271 223.447 66.8271 224.14H63.5271C63.5538 223.007 63.7938 222.06 64.2471 221.3C64.7138 220.54 65.3204 219.98 66.0671 219.62C66.8271 219.26 67.6671 219.08 68.5871 219.08C70.1738 219.08 71.3671 219.487 72.1671 220.3C72.9804 221.113 73.3871 222.173 73.3871 223.48C73.3871 224.907 72.9004 226.233 71.9271 227.46C70.9538 228.673 69.7138 229.86 68.2071 231.02H73.6071V233.8H63.5671V231.26Z" fill="white"/>
<rect x="1.5" y="289.5" width="133" height="133" fill="#43D370" stroke="#38A35A" stroke-width="3"/>
<path d="M43.2086 333.96V348H39.7886V342.22H34.4686V348H31.0486V333.96H34.4686V339.46H39.7886V333.96H43.2086ZM44.9975 342.4C44.9975 341.253 45.2108 340.247 45.6375 339.38C46.0775 338.513 46.6708 337.847 47.4175 337.38C48.1642 336.913 48.9975 336.68 49.9175 336.68C50.7042 336.68 51.3908 336.84 51.9775 337.16C52.5775 337.48 53.0375 337.9 53.3575 338.42V336.84H56.7775V348H53.3575V346.42C53.0242 346.94 52.5575 347.36 51.9575 347.68C51.3708 348 50.6842 348.16 49.8975 348.16C48.9908 348.16 48.1642 347.927 47.4175 347.46C46.6708 346.98 46.0775 346.307 45.6375 345.44C45.2108 344.56 44.9975 343.547 44.9975 342.4ZM53.3575 342.42C53.3575 341.567 53.1175 340.893 52.6375 340.4C52.1708 339.907 51.5975 339.66 50.9175 339.66C50.2375 339.66 49.6575 339.907 49.1775 340.4C48.7108 340.88 48.4775 341.547 48.4775 342.4C48.4775 343.253 48.7108 343.933 49.1775 344.44C49.6575 344.933 50.2375 345.18 50.9175 345.18C51.5975 345.18 52.1708 344.933 52.6375 344.44C53.1175 343.947 53.3575 343.273 53.3575 342.42ZM66.0517 336.72C67.3584 336.72 68.3984 337.147 69.1717 338C69.9584 338.84 70.3517 340 70.3517 341.48V348H66.9517V341.94C66.9517 341.193 66.7584 340.613 66.3717 340.2C65.9851 339.787 65.4651 339.58 64.8117 339.58C64.1584 339.58 63.6384 339.787 63.2517 340.2C62.8651 340.613 62.6717 341.193 62.6717 341.94V348H59.2517V336.84H62.6717V338.32C63.0184 337.827 63.4851 337.44 64.0717 337.16C64.6584 336.867 65.3184 336.72 66.0517 336.72ZM76.9683 336.68C77.7549 336.68 78.4416 336.84 79.0283 337.16C79.6283 337.48 80.0883 337.9 80.4083 338.42V336.84H83.8283V347.98C83.8283 349.007 83.6216 349.933 83.2083 350.76C82.8083 351.6 82.1883 352.267 81.3483 352.76C80.5216 353.253 79.4883 353.5 78.2483 353.5C76.5949 353.5 75.2549 353.107 74.2283 352.32C73.2016 351.547 72.6149 350.493 72.4683 349.16H75.8483C75.9549 349.587 76.2083 349.92 76.6083 350.16C77.0083 350.413 77.5016 350.54 78.0883 350.54C78.7949 350.54 79.3549 350.333 79.7683 349.92C80.1949 349.52 80.4083 348.873 80.4083 347.98V346.4C80.0749 346.92 79.6149 347.347 79.0283 347.68C78.4416 348 77.7549 348.16 76.9683 348.16C76.0483 348.16 75.2149 347.927 74.4683 347.46C73.7216 346.98 73.1283 346.307 72.6883 345.44C72.2616 344.56 72.0483 343.547 72.0483 342.4C72.0483 341.253 72.2616 340.247 72.6883 339.38C73.1283 338.513 73.7216 337.847 74.4683 337.38C75.2149 336.913 76.0483 336.68 76.9683 336.68ZM80.4083 342.42C80.4083 341.567 80.1683 340.893 79.6883 340.4C79.2216 339.907 78.6483 339.66 77.9683 339.66C77.2883 339.66 76.7083 339.907 76.2283 340.4C75.7616 340.88 75.5283 341.547 75.5283 342.4C75.5283 343.253 75.7616 343.933 76.2283 344.44C76.7083 344.933 77.2883 345.18 77.9683 345.18C78.6483 345.18 79.2216 344.933 79.6883 344.44C80.1683 343.947 80.4083 343.273 80.4083 342.42ZM85.6225 342.4C85.6225 341.253 85.8358 340.247 86.2625 339.38C86.7025 338.513 87.2958 337.847 88.0425 337.38C88.7892 336.913 89.6225 336.68 90.5425 336.68C91.3292 336.68 92.0158 336.84 92.6025 337.16C93.2025 337.48 93.6625 337.9 93.9825 338.42V336.84H97.4025V348H93.9825V346.42C93.6492 346.94 93.1825 347.36 92.5825 347.68C91.9958 348 91.3092 348.16 90.5225 348.16C89.6158 348.16 88.7892 347.927 88.0425 347.46C87.2958 346.98 86.7025 346.307 86.2625 345.44C85.8358 344.56 85.6225 343.547 85.6225 342.4ZM93.9825 342.42C93.9825 341.567 93.7425 340.893 93.2625 340.4C92.7958 339.907 92.2225 339.66 91.5425 339.66C90.8625 339.66 90.2825 339.907 89.8025 340.4C89.3358 340.88 89.1025 341.547 89.1025 342.4C89.1025 343.253 89.3358 343.933 89.8025 344.44C90.2825 344.933 90.8625 345.18 91.5425 345.18C92.2225 345.18 92.7958 344.933 93.2625 344.44C93.7425 343.947 93.9825 343.273 93.9825 342.42ZM103.297 338.7C103.697 338.087 104.197 337.607 104.797 337.26C105.397 336.9 106.063 336.72 106.797 336.72V340.34H105.857C105.003 340.34 104.363 340.527 103.937 340.9C103.51 341.26 103.297 341.9 103.297 342.82V348H99.8767V336.84H103.297V338.7ZM65.2802 366.58V363.4H70.8202V378H67.2602V366.58H65.2802Z" fill="white"/>
<rect x="305.5" y="1.5" width="133" height="133" fill="#43D370" stroke="#38A35A" stroke-width="3"/>
<path d="M346.209 45.96V60H342.789V54.22H337.469V60H334.049V45.96H337.469V51.46H342.789V45.96H346.209ZM347.998 54.4C347.998 53.2533 348.211 52.2467 348.638 51.38C349.078 50.5133 349.671 49.8467 350.418 49.38C351.164 48.9133 351.998 48.68 352.918 48.68C353.704 48.68 354.391 48.84 354.978 49.16C355.578 49.48 356.038 49.9 356.358 50.42V48.84H359.778V60H356.358V58.42C356.024 58.94 355.558 59.36 354.958 59.68C354.371 60 353.684 60.16 352.898 60.16C351.991 60.16 351.164 59.9267 350.418 59.46C349.671 58.98 349.078 58.3067 348.638 57.44C348.211 56.56 347.998 55.5467 347.998 54.4ZM356.358 54.42C356.358 53.5667 356.118 52.8933 355.638 52.4C355.171 51.9067 354.598 51.66 353.918 51.66C353.238 51.66 352.658 51.9067 352.178 52.4C351.711 52.88 351.478 53.5467 351.478 54.4C351.478 55.2533 351.711 55.9333 352.178 56.44C352.658 56.9333 353.238 57.18 353.918 57.18C354.598 57.18 355.171 56.9333 355.638 56.44C356.118 55.9467 356.358 55.2733 356.358 54.42ZM369.052 48.72C370.358 48.72 371.398 49.1467 372.172 50C372.958 50.84 373.352 52 373.352 53.48V60H369.952V53.94C369.952 53.1933 369.758 52.6133 369.372 52.2C368.985 51.7867 368.465 51.58 367.812 51.58C367.158 51.58 366.638 51.7867 366.252 52.2C365.865 52.6133 365.672 53.1933 365.672 53.94V60H362.252V48.84H365.672V50.32C366.018 49.8267 366.485 49.44 367.072 49.16C367.658 48.8667 368.318 48.72 369.052 48.72ZM379.968 48.68C380.755 48.68 381.442 48.84 382.028 49.16C382.628 49.48 383.088 49.9 383.408 50.42V48.84H386.828V59.98C386.828 61.0067 386.622 61.9333 386.208 62.76C385.808 63.6 385.188 64.2667 384.348 64.76C383.522 65.2533 382.488 65.5 381.248 65.5C379.595 65.5 378.255 65.1067 377.228 64.32C376.202 63.5467 375.615 62.4933 375.468 61.16H378.848C378.955 61.5867 379.208 61.92 379.608 62.16C380.008 62.4133 380.502 62.54 381.088 62.54C381.795 62.54 382.355 62.3333 382.768 61.92C383.195 61.52 383.408 60.8733 383.408 59.98V58.4C383.075 58.92 382.615 59.3467 382.028 59.68C381.442 60 380.755 60.16 379.968 60.16C379.048 60.16 378.215 59.9267 377.468 59.46C376.722 58.98 376.128 58.3067 375.688 57.44C375.262 56.56 375.048 55.5467 375.048 54.4C375.048 53.2533 375.262 52.2467 375.688 51.38C376.128 50.5133 376.722 49.8467 377.468 49.38C378.215 48.9133 379.048 48.68 379.968 48.68ZM383.408 54.42C383.408 53.5667 383.168 52.8933 382.688 52.4C382.222 51.9067 381.648 51.66 380.968 51.66C380.288 51.66 379.708 51.9067 379.228 52.4C378.762 52.88 378.528 53.5467 378.528 54.4C378.528 55.2533 378.762 55.9333 379.228 56.44C379.708 56.9333 380.288 57.18 380.968 57.18C381.648 57.18 382.222 56.9333 382.688 56.44C383.168 55.9467 383.408 55.2733 383.408 54.42ZM388.623 54.4C388.623 53.2533 388.836 52.2467 389.263 51.38C389.703 50.5133 390.296 49.8467 391.043 49.38C391.789 48.9133 392.623 48.68 393.543 48.68C394.329 48.68 395.016 48.84 395.603 49.16C396.203 49.48 396.663 49.9 396.983 50.42V48.84H400.403V60H396.983V58.42C396.649 58.94 396.183 59.36 395.583 59.68C394.996 60 394.309 60.16 393.523 60.16C392.616 60.16 391.789 59.9267 391.043 59.46C390.296 58.98 389.703 58.3067 389.263 57.44C388.836 56.56 388.623 55.5467 388.623 54.4ZM396.983 54.42C396.983 53.5667 396.743 52.8933 396.263 52.4C395.796 51.9067 395.223 51.66 394.543 51.66C393.863 51.66 393.283 51.9067 392.803 52.4C392.336 52.88 392.103 53.5467 392.103 54.4C392.103 55.2533 392.336 55.9333 392.803 56.44C393.283 56.9333 393.863 57.18 394.543 57.18C395.223 57.18 395.796 56.9333 396.263 56.44C396.743 55.9467 396.983 55.2733 396.983 54.42ZM406.297 50.7C406.697 50.0867 407.197 49.6067 407.797 49.26C408.397 48.9 409.063 48.72 409.797 48.72V52.34H408.857C408.003 52.34 407.363 52.5267 406.937 52.9C406.51 53.26 406.297 53.9 406.297 54.82V60H402.877V48.84H406.297V50.7ZM365.712 87.4V84.64L372.032 75.6H375.852V84.44H377.492V87.4H375.852V90H372.432V87.4H365.712ZM372.672 79.36L369.312 84.44H372.672V79.36Z" fill="white"/>
<rect x="305.5" y="145.5" width="133" height="133" fill="#43D370" stroke="#38A35A" stroke-width="3"/>
<path d="M346.209 189.96V204H342.789V198.22H337.469V204H334.049V189.96H337.469V195.46H342.789V189.96H346.209ZM347.998 198.4C347.998 197.253 348.211 196.247 348.638 195.38C349.078 194.513 349.671 193.847 350.418 193.38C351.164 192.913 351.998 192.68 352.918 192.68C353.704 192.68 354.391 192.84 354.978 193.16C355.578 193.48 356.038 193.9 356.358 194.42V192.84H359.778V204H356.358V202.42C356.024 202.94 355.558 203.36 354.958 203.68C354.371 204 353.684 204.16 352.898 204.16C351.991 204.16 351.164 203.927 350.418 203.46C349.671 202.98 349.078 202.307 348.638 201.44C348.211 200.56 347.998 199.547 347.998 198.4ZM356.358 198.42C356.358 197.567 356.118 196.893 355.638 196.4C355.171 195.907 354.598 195.66 353.918 195.66C353.238 195.66 352.658 195.907 352.178 196.4C351.711 196.88 351.478 197.547 351.478 198.4C351.478 199.253 351.711 199.933 352.178 200.44C352.658 200.933 353.238 201.18 353.918 201.18C354.598 201.18 355.171 200.933 355.638 200.44C356.118 199.947 356.358 199.273 356.358 198.42ZM369.052 192.72C370.358 192.72 371.398 193.147 372.172 194C372.958 194.84 373.352 196 373.352 197.48V204H369.952V197.94C369.952 197.193 369.758 196.613 369.372 196.2C368.985 195.787 368.465 195.58 367.812 195.58C367.158 195.58 366.638 195.787 366.252 196.2C365.865 196.613 365.672 197.193 365.672 197.94V204H362.252V192.84H365.672V194.32C366.018 193.827 366.485 193.44 367.072 193.16C367.658 192.867 368.318 192.72 369.052 192.72ZM379.968 192.68C380.755 192.68 381.442 192.84 382.028 193.16C382.628 193.48 383.088 193.9 383.408 194.42V192.84H386.828V203.98C386.828 205.007 386.622 205.933 386.208 206.76C385.808 207.6 385.188 208.267 384.348 208.76C383.522 209.253 382.488 209.5 381.248 209.5C379.595 209.5 378.255 209.107 377.228 208.32C376.202 207.547 375.615 206.493 375.468 205.16H378.848C378.955 205.587 379.208 205.92 379.608 206.16C380.008 206.413 380.502 206.54 381.088 206.54C381.795 206.54 382.355 206.333 382.768 205.92C383.195 205.52 383.408 204.873 383.408 203.98V202.4C383.075 202.92 382.615 203.347 382.028 203.68C381.442 204 380.755 204.16 379.968 204.16C379.048 204.16 378.215 203.927 377.468 203.46C376.722 202.98 376.128 202.307 375.688 201.44C375.262 200.56 375.048 199.547 375.048 198.4C375.048 197.253 375.262 196.247 375.688 195.38C376.128 194.513 376.722 193.847 377.468 193.38C378.215 192.913 379.048 192.68 379.968 192.68ZM383.408 198.42C383.408 197.567 383.168 196.893 382.688 196.4C382.222 195.907 381.648 195.66 380.968 195.66C380.288 195.66 379.708 195.907 379.228 196.4C378.762 196.88 378.528 197.547 378.528 198.4C378.528 199.253 378.762 199.933 379.228 200.44C379.708 200.933 380.288 201.18 380.968 201.18C381.648 201.18 382.222 200.933 382.688 200.44C383.168 199.947 383.408 199.273 383.408 198.42ZM388.623 198.4C388.623 197.253 388.836 196.247 389.263 195.38C389.703 194.513 390.296 193.847 391.043 193.38C391.789 192.913 392.623 192.68 393.543 192.68C394.329 192.68 395.016 192.84 395.603 193.16C396.203 193.48 396.663 193.9 396.983 194.42V192.84H400.403V204H396.983V202.42C396.649 202.94 396.183 203.36 395.583 203.68C394.996 204 394.309 204.16 393.523 204.16C392.616 204.16 391.789 203.927 391.043 203.46C390.296 202.98 389.703 202.307 389.263 201.44C388.836 200.56 388.623 199.547 388.623 198.4ZM396.983 198.42C396.983 197.567 396.743 196.893 396.263 196.4C395.796 195.907 395.223 195.66 394.543 195.66C393.863 195.66 393.283 195.907 392.803 196.4C392.336 196.88 392.103 197.547 392.103 198.4C392.103 199.253 392.336 199.933 392.803 200.44C393.283 200.933 393.863 201.18 394.543 201.18C395.223 201.18 395.796 200.933 396.263 200.44C396.743 199.947 396.983 199.273 396.983 198.42ZM406.297 194.7C406.697 194.087 407.197 193.607 407.797 193.26C408.397 192.9 409.063 192.72 409.797 192.72V196.34H408.857C408.003 196.34 407.363 196.527 406.937 196.9C406.51 197.26 406.297 197.9 406.297 198.82V204H402.877V192.84H406.297V194.7ZM376.176 222.38H369.936V225.14C370.203 224.847 370.576 224.607 371.056 224.42C371.536 224.233 372.056 224.14 372.616 224.14C373.616 224.14 374.443 224.367 375.096 224.82C375.763 225.273 376.249 225.86 376.556 226.58C376.863 227.3 377.016 228.08 377.016 228.92C377.016 230.48 376.576 231.72 375.696 232.64C374.816 233.547 373.576 234 371.976 234C370.909 234 369.983 233.82 369.196 233.46C368.409 233.087 367.803 232.573 367.376 231.92C366.949 231.267 366.716 230.513 366.676 229.66H370.016C370.096 230.073 370.289 230.42 370.596 230.7C370.903 230.967 371.323 231.1 371.856 231.1C372.483 231.1 372.949 230.9 373.256 230.5C373.563 230.1 373.716 229.567 373.716 228.9C373.716 228.247 373.556 227.747 373.236 227.4C372.916 227.053 372.449 226.88 371.836 226.88C371.383 226.88 371.009 226.993 370.716 227.22C370.423 227.433 370.229 227.72 370.136 228.08H366.836V219.38H376.176V222.38Z" fill="white"/>
<rect x="305.5" y="289.5" width="133" height="133" fill="#43D370" stroke="#38A35A" stroke-width="3"/>
<path d="M346.209 333.96V348H342.789V342.22H337.469V348H334.049V333.96H337.469V339.46H342.789V333.96H346.209ZM347.998 342.4C347.998 341.253 348.211 340.247 348.638 339.38C349.078 338.513 349.671 337.847 350.418 337.38C351.164 336.913 351.998 336.68 352.918 336.68C353.704 336.68 354.391 336.84 354.978 337.16C355.578 337.48 356.038 337.9 356.358 338.42V336.84H359.778V348H356.358V346.42C356.024 346.94 355.558 347.36 354.958 347.68C354.371 348 353.684 348.16 352.898 348.16C351.991 348.16 351.164 347.927 350.418 347.46C349.671 346.98 349.078 346.307 348.638 345.44C348.211 344.56 347.998 343.547 347.998 342.4ZM356.358 342.42C356.358 341.567 356.118 340.893 355.638 340.4C355.171 339.907 354.598 339.66 353.918 339.66C353.238 339.66 352.658 339.907 352.178 340.4C351.711 340.88 351.478 341.547 351.478 342.4C351.478 343.253 351.711 343.933 352.178 344.44C352.658 344.933 353.238 345.18 353.918 345.18C354.598 345.18 355.171 344.933 355.638 344.44C356.118 343.947 356.358 343.273 356.358 342.42ZM369.052 336.72C370.358 336.72 371.398 337.147 372.172 338C372.958 338.84 373.352 340 373.352 341.48V348H369.952V341.94C369.952 341.193 369.758 340.613 369.372 340.2C368.985 339.787 368.465 339.58 367.812 339.58C367.158 339.58 366.638 339.787 366.252 340.2C365.865 340.613 365.672 341.193 365.672 341.94V348H362.252V336.84H365.672V338.32C366.018 337.827 366.485 337.44 367.072 337.16C367.658 336.867 368.318 336.72 369.052 336.72ZM379.968 336.68C380.755 336.68 381.442 336.84 382.028 337.16C382.628 337.48 383.088 337.9 383.408 338.42V336.84H386.828V347.98C386.828 349.007 386.622 349.933 386.208 350.76C385.808 351.6 385.188 352.267 384.348 352.76C383.522 353.253 382.488 353.5 381.248 353.5C379.595 353.5 378.255 353.107 377.228 352.32C376.202 351.547 375.615 350.493 375.468 349.16H378.848C378.955 349.587 379.208 349.92 379.608 350.16C380.008 350.413 380.502 350.54 381.088 350.54C381.795 350.54 382.355 350.333 382.768 349.92C383.195 349.52 383.408 348.873 383.408 347.98V346.4C383.075 346.92 382.615 347.347 382.028 347.68C381.442 348 380.755 348.16 379.968 348.16C379.048 348.16 378.215 347.927 377.468 347.46C376.722 346.98 376.128 346.307 375.688 345.44C375.262 344.56 375.048 343.547 375.048 342.4C375.048 341.253 375.262 340.247 375.688 339.38C376.128 338.513 376.722 337.847 377.468 337.38C378.215 336.913 379.048 336.68 379.968 336.68ZM383.408 342.42C383.408 341.567 383.168 340.893 382.688 340.4C382.222 339.907 381.648 339.66 380.968 339.66C380.288 339.66 379.708 339.907 379.228 340.4C378.762 340.88 378.528 341.547 378.528 342.4C378.528 343.253 378.762 343.933 379.228 344.44C379.708 344.933 380.288 345.18 380.968 345.18C381.648 345.18 382.222 344.933 382.688 344.44C383.168 343.947 383.408 343.273 383.408 342.42ZM388.623 342.4C388.623 341.253 388.836 340.247 389.263 339.38C389.703 338.513 390.296 337.847 391.043 337.38C391.789 336.913 392.623 336.68 393.543 336.68C394.329 336.68 395.016 336.84 395.603 337.16C396.203 337.48 396.663 337.9 396.983 338.42V336.84H400.403V348H396.983V346.42C396.649 346.94 396.183 347.36 395.583 347.68C394.996 348 394.309 348.16 393.523 348.16C392.616 348.16 391.789 347.927 391.043 347.46C390.296 346.98 389.703 346.307 389.263 345.44C388.836 344.56 388.623 343.547 388.623 342.4ZM396.983 342.42C396.983 341.567 396.743 340.893 396.263 340.4C395.796 339.907 395.223 339.66 394.543 339.66C393.863 339.66 393.283 339.907 392.803 340.4C392.336 340.88 392.103 341.547 392.103 342.4C392.103 343.253 392.336 343.933 392.803 344.44C393.283 344.933 393.863 345.18 394.543 345.18C395.223 345.18 395.796 344.933 396.263 344.44C396.743 343.947 396.983 343.273 396.983 342.42ZM406.297 338.7C406.697 338.087 407.197 337.607 407.797 337.26C408.397 336.9 409.063 336.72 409.797 336.72V340.34H408.857C408.003 340.34 407.363 340.527 406.937 340.9C406.51 341.26 406.297 341.9 406.297 342.82V348H402.877V336.84H406.297V338.7ZM373.253 367.34C373.146 366.847 372.959 366.48 372.693 366.24C372.426 365.987 372.046 365.86 371.553 365.86C370.793 365.86 370.246 366.193 369.913 366.86C369.579 367.513 369.406 368.553 369.393 369.98C369.686 369.513 370.106 369.147 370.653 368.88C371.213 368.613 371.826 368.48 372.493 368.48C373.799 368.48 374.846 368.893 375.633 369.72C376.433 370.547 376.833 371.7 376.833 373.18C376.833 374.153 376.633 375.007 376.233 375.74C375.846 376.473 375.273 377.047 374.513 377.46C373.766 377.873 372.879 378.08 371.853 378.08C369.799 378.08 368.373 377.44 367.573 376.16C366.773 374.867 366.373 373.013 366.373 370.6C366.373 368.067 366.793 366.187 367.633 364.96C368.486 363.72 369.846 363.1 371.713 363.1C372.713 363.1 373.553 363.3 374.233 363.7C374.926 364.087 375.446 364.6 375.793 365.24C376.153 365.88 376.366 366.58 376.433 367.34H373.253ZM371.673 371.18C371.099 371.18 370.619 371.353 370.233 371.7C369.859 372.033 369.673 372.513 369.673 373.14C369.673 373.78 369.846 374.28 370.193 374.64C370.553 375 371.059 375.18 371.713 375.18C372.299 375.18 372.759 375.007 373.093 374.66C373.439 374.3 373.613 373.813 373.613 373.2C373.613 372.573 373.446 372.08 373.113 371.72C372.779 371.36 372.299 371.18 371.673 371.18Z" fill="white"/>
<rect x="141" y="3" width="158" height="418" fill="#D9D9D9"/>
</svg>
