<svg width="806" height="181" viewBox="0 0 806 181" fill="none" xmlns="http://www.w3.org/2000/svg">
<rect x="1.5" y="1.5" width="231.043" height="177.422" fill="#43D370" stroke="#38A35A" stroke-width="3"/>
<path d="M107.783 82.3402C106.463 82.3402 105.25 82.0335 104.143 81.4202C103.05 80.8069 102.177 79.9535 101.523 78.8602C100.883 77.7535 100.563 76.5135 100.563 75.1402C100.563 73.7669 100.883 72.5335 101.523 71.4402C102.177 70.3469 103.05 69.4935 104.143 68.8802C105.25 68.2669 106.463 67.9602 107.783 67.9602C109.103 67.9602 110.31 68.2669 111.403 68.8802C112.51 69.4935 113.377 70.3469 114.003 71.4402C114.643 72.5335 114.963 73.7669 114.963 75.1402C114.963 76.5135 114.643 77.7535 114.003 78.8602C113.363 79.9535 112.497 80.8069 111.403 81.4202C110.31 82.0335 109.103 82.3402 107.783 82.3402ZM107.783 79.2202C108.903 79.2202 109.797 78.8469 110.463 78.1002C111.143 77.3535 111.483 76.3669 111.483 75.1402C111.483 73.9002 111.143 72.9135 110.463 72.1802C109.797 71.4335 108.903 71.0602 107.783 71.0602C106.65 71.0602 105.743 71.4269 105.063 72.1602C104.397 72.8935 104.063 73.8869 104.063 75.1402C104.063 76.3802 104.397 77.3735 105.063 78.1202C105.743 78.8535 106.65 79.2202 107.783 79.2202ZM120.286 67.4002V82.2002H116.866V67.4002H120.286ZM122.085 76.6002C122.085 75.4535 122.298 74.4469 122.725 73.5802C123.165 72.7135 123.758 72.0469 124.505 71.5802C125.251 71.1135 126.085 70.8802 127.005 70.8802C127.738 70.8802 128.405 71.0335 129.005 71.3402C129.618 71.6469 130.098 72.0602 130.445 72.5802V67.4002H133.865V82.2002H130.445V80.6002C130.125 81.1335 129.665 81.5602 129.065 81.8802C128.478 82.2002 127.791 82.3602 127.005 82.3602C126.085 82.3602 125.251 82.1269 124.505 81.6602C123.758 81.1802 123.165 80.5069 122.725 79.6402C122.298 78.7602 122.085 77.7469 122.085 76.6002ZM130.445 76.6202C130.445 75.7669 130.205 75.0935 129.725 74.6002C129.258 74.1069 128.685 73.8602 128.005 73.8602C127.325 73.8602 126.745 74.1069 126.265 74.6002C125.798 75.0802 125.565 75.7469 125.565 76.6002C125.565 77.4535 125.798 78.1335 126.265 78.6402C126.745 79.1335 127.325 79.3802 128.005 79.3802C128.685 79.3802 129.258 79.1335 129.725 78.6402C130.205 78.1469 130.445 77.4735 130.445 76.6202ZM73.8935 105.16C73.8935 103.774 74.1935 102.54 74.7935 101.46C75.3935 100.367 76.2269 99.5202 77.2935 98.9202C78.3735 98.3069 79.5935 98.0002 80.9535 98.0002C82.6202 98.0002 84.0469 98.4402 85.2335 99.3202C86.4202 100.2 87.2135 101.4 87.6135 102.92H83.8535C83.5735 102.334 83.1735 101.887 82.6535 101.58C82.1469 101.274 81.5669 101.12 80.9135 101.12C79.8602 101.12 79.0069 101.487 78.3535 102.22C77.7002 102.954 77.3735 103.934 77.3735 105.16C77.3735 106.387 77.7002 107.367 78.3535 108.1C79.0069 108.834 79.8602 109.2 80.9135 109.2C81.5669 109.2 82.1469 109.047 82.6535 108.74C83.1735 108.434 83.5735 107.987 83.8535 107.4H87.6135C87.2135 108.92 86.4202 110.12 85.2335 111C84.0469 111.867 82.6202 112.3 80.9535 112.3C79.5935 112.3 78.3735 112 77.2935 111.4C76.2269 110.787 75.3935 109.94 74.7935 108.86C74.1935 107.78 73.8935 106.547 73.8935 105.16ZM89.0279 106.6C89.0279 105.454 89.2413 104.447 89.6679 103.58C90.1079 102.714 90.7013 102.047 91.4479 101.58C92.1946 101.114 93.0279 100.88 93.9479 100.88C94.7346 100.88 95.4213 101.04 96.0079 101.36C96.6079 101.68 97.0679 102.1 97.3879 102.62V101.04H100.808V112.2H97.3879V110.62C97.0546 111.14 96.5879 111.56 95.9879 111.88C95.4013 112.2 94.7146 112.36 93.9279 112.36C93.0213 112.36 92.1946 112.127 91.4479 111.66C90.7013 111.18 90.1079 110.507 89.6679 109.64C89.2413 108.76 89.0279 107.747 89.0279 106.6ZM97.3879 106.62C97.3879 105.767 97.1479 105.094 96.6679 104.6C96.2013 104.107 95.6279 103.86 94.9479 103.86C94.2679 103.86 93.6879 104.107 93.2079 104.6C92.7413 105.08 92.5079 105.747 92.5079 106.6C92.5079 107.454 92.7413 108.134 93.2079 108.64C93.6879 109.134 94.2679 109.38 94.9479 109.38C95.6279 109.38 96.2013 109.134 96.6679 108.64C97.1479 108.147 97.3879 107.474 97.3879 106.62ZM110.082 100.92C111.389 100.92 112.429 101.347 113.202 102.2C113.989 103.04 114.382 104.2 114.382 105.68V112.2H110.982V106.14C110.982 105.394 110.789 104.814 110.402 104.4C110.015 103.987 109.495 103.78 108.842 103.78C108.189 103.78 107.669 103.987 107.282 104.4C106.895 104.814 106.702 105.394 106.702 106.14V112.2H103.282V101.04H106.702V102.52C107.049 102.027 107.515 101.64 108.102 101.36C108.689 101.067 109.349 100.92 110.082 100.92ZM122.979 109.3V112.2H121.239C119.999 112.2 119.032 111.9 118.339 111.3C117.645 110.687 117.299 109.694 117.299 108.32V103.88H115.939V101.04H117.299V98.3202H120.719V101.04H122.959V103.88H120.719V108.36C120.719 108.694 120.799 108.934 120.959 109.08C121.119 109.227 121.385 109.3 121.759 109.3H122.979ZM135.404 106.44C135.404 106.76 135.384 107.094 135.344 107.44H127.604C127.657 108.134 127.877 108.667 128.264 109.04C128.664 109.4 129.15 109.58 129.724 109.58C130.577 109.58 131.17 109.22 131.504 108.5H135.144C134.957 109.234 134.617 109.894 134.124 110.48C133.644 111.067 133.037 111.527 132.304 111.86C131.57 112.194 130.75 112.36 129.844 112.36C128.75 112.36 127.777 112.127 126.924 111.66C126.07 111.194 125.404 110.527 124.924 109.66C124.444 108.794 124.204 107.78 124.204 106.62C124.204 105.46 124.437 104.447 124.904 103.58C125.384 102.714 126.05 102.047 126.904 101.58C127.757 101.114 128.737 100.88 129.844 100.88C130.924 100.88 131.884 101.107 132.724 101.56C133.564 102.014 134.217 102.66 134.684 103.5C135.164 104.34 135.404 105.32 135.404 106.44ZM131.904 105.54C131.904 104.954 131.704 104.487 131.304 104.14C130.904 103.794 130.404 103.62 129.804 103.62C129.23 103.62 128.744 103.787 128.344 104.12C127.957 104.454 127.717 104.927 127.624 105.54H131.904ZM147.728 106.44C147.728 106.76 147.708 107.094 147.668 107.44H139.928C139.981 108.134 140.201 108.667 140.588 109.04C140.988 109.4 141.475 109.58 142.048 109.58C142.901 109.58 143.495 109.22 143.828 108.5H147.468C147.281 109.234 146.941 109.894 146.448 110.48C145.968 111.067 145.361 111.527 144.628 111.86C143.895 112.194 143.075 112.36 142.168 112.36C141.075 112.36 140.101 112.127 139.248 111.66C138.395 111.194 137.728 110.527 137.248 109.66C136.768 108.794 136.528 107.78 136.528 106.62C136.528 105.46 136.761 104.447 137.228 103.58C137.708 102.714 138.375 102.047 139.228 101.58C140.081 101.114 141.061 100.88 142.168 100.88C143.248 100.88 144.208 101.107 145.048 101.56C145.888 102.014 146.541 102.66 147.008 103.5C147.488 104.34 147.728 105.32 147.728 106.44ZM144.228 105.54C144.228 104.954 144.028 104.487 143.628 104.14C143.228 103.794 142.728 103.62 142.128 103.62C141.555 103.62 141.068 103.787 140.668 104.12C140.281 104.454 140.041 104.927 139.948 105.54H144.228ZM156.332 100.92C157.639 100.92 158.679 101.347 159.452 102.2C160.239 103.04 160.632 104.2 160.632 105.68V112.2H157.232V106.14C157.232 105.394 157.039 104.814 156.652 104.4C156.265 103.987 155.745 103.78 155.092 103.78C154.439 103.78 153.919 103.987 153.532 104.4C153.145 104.814 152.952 105.394 152.952 106.14V112.2H149.532V101.04H152.952V102.52C153.299 102.027 153.765 101.64 154.352 101.36C154.939 101.067 155.599 100.92 156.332 100.92Z" fill="white"/>
<rect x="329.389" y="1.5" width="149.687" height="137.977" fill="#43D370" stroke="#38A35A" stroke-width="3"/>
<path d="M389.929 62.96V77H386.509V68.58L383.369 77H380.609L377.449 68.56V77H374.029V62.96H378.069L382.009 72.68L385.909 62.96H389.929ZM403.088 67.48C403.088 68.2933 402.902 69.04 402.528 69.72C402.155 70.3867 401.582 70.9267 400.808 71.34C400.035 71.7533 399.075 71.96 397.928 71.96H395.808V77H392.388V62.96H397.928C399.048 62.96 399.995 63.1533 400.768 63.54C401.542 63.9267 402.122 64.46 402.508 65.14C402.895 65.82 403.088 66.6 403.088 67.48ZM397.668 69.24C398.322 69.24 398.808 69.0867 399.128 68.78C399.448 68.4733 399.608 68.04 399.608 67.48C399.608 66.92 399.448 66.4867 399.128 66.18C398.808 65.8733 398.322 65.72 397.668 65.72H395.808V69.24H397.668ZM414.189 67.4C413.936 66.9333 413.569 66.58 413.089 66.34C412.622 66.0867 412.069 65.96 411.429 65.96C410.322 65.96 409.436 66.3267 408.769 67.06C408.102 67.78 407.769 68.7467 407.769 69.96C407.769 71.2533 408.116 72.2667 408.809 73C409.516 73.72 410.482 74.08 411.709 74.08C412.549 74.08 413.256 73.8667 413.829 73.44C414.416 73.0133 414.842 72.4 415.109 71.6H410.769V69.08H418.209V72.26C417.956 73.1133 417.522 73.9067 416.909 74.64C416.309 75.3733 415.542 75.9667 414.609 76.42C413.676 76.8733 412.622 77.1 411.449 77.1C410.062 77.1 408.822 76.8 407.729 76.2C406.649 75.5867 405.802 74.74 405.189 73.66C404.589 72.58 404.289 71.3467 404.289 69.96C404.289 68.5733 404.589 67.34 405.189 66.26C405.802 65.1667 406.649 64.32 407.729 63.72C408.809 63.1067 410.042 62.8 411.429 62.8C413.109 62.8 414.522 63.2067 415.669 64.02C416.829 64.8333 417.596 65.96 417.969 67.4H414.189ZM424.122 66.52C424.175 65.0933 424.642 63.9933 425.522 63.22C426.402 62.4467 427.595 62.06 429.102 62.06C430.102 62.06 430.955 62.2333 431.662 62.58C432.382 62.9267 432.922 63.4 433.282 64C433.655 64.6 433.842 65.2733 433.842 66.02C433.842 66.9 433.622 67.62 433.182 68.18C432.742 68.7267 432.228 69.1 431.642 69.3V69.38C432.402 69.6333 433.002 70.0533 433.442 70.64C433.882 71.2267 434.102 71.98 434.102 72.9C434.102 73.7267 433.908 74.46 433.522 75.1C433.148 75.7267 432.595 76.22 431.862 76.58C431.142 76.94 430.282 77.12 429.282 77.12C427.682 77.12 426.402 76.7267 425.442 75.94C424.495 75.1533 423.995 73.9667 423.942 72.38H427.262C427.275 72.9667 427.442 73.4333 427.762 73.78C428.082 74.1133 428.548 74.28 429.162 74.28C429.682 74.28 430.082 74.1333 430.362 73.84C430.655 73.5333 430.802 73.1333 430.802 72.64C430.802 72 430.595 71.54 430.182 71.26C429.782 70.9667 429.135 70.82 428.242 70.82H427.602V68.04H428.242C428.922 68.04 429.468 67.9267 429.882 67.7C430.308 67.46 430.522 67.04 430.522 66.44C430.522 65.96 430.388 65.5867 430.122 65.32C429.855 65.0533 429.488 64.92 429.022 64.92C428.515 64.92 428.135 65.0733 427.882 65.38C427.642 65.6867 427.502 66.0667 427.462 66.52H424.122Z" fill="white"/>
<rect x="492.101" y="1.5" width="149.687" height="137.977" fill="#FF8383" stroke="#C54F4F" stroke-width="3"/>
<path d="M553.271 62.96V77H549.851V68.58L546.711 77H543.951L540.791 68.56V77H537.371V62.96H541.411L545.351 72.68L549.251 62.96H553.271ZM566.43 67.48C566.43 68.2933 566.244 69.04 565.87 69.72C565.497 70.3867 564.924 70.9267 564.15 71.34C563.377 71.7533 562.417 71.96 561.27 71.96H559.15V77H555.73V62.96H561.27C562.39 62.96 563.337 63.1533 564.11 63.54C564.884 63.9267 565.464 64.46 565.85 65.14C566.237 65.82 566.43 66.6 566.43 67.48ZM561.01 69.24C561.664 69.24 562.15 69.0867 562.47 68.78C562.79 68.4733 562.95 68.04 562.95 67.48C562.95 66.92 562.79 66.4867 562.47 66.18C562.15 65.8733 561.664 65.72 561.01 65.72H559.15V69.24H561.01ZM577.531 67.4C577.277 66.9333 576.911 66.58 576.431 66.34C575.964 66.0867 575.411 65.96 574.771 65.96C573.664 65.96 572.777 66.3267 572.111 67.06C571.444 67.78 571.111 68.7467 571.111 69.96C571.111 71.2533 571.457 72.2667 572.151 73C572.857 73.72 573.824 74.08 575.051 74.08C575.891 74.08 576.597 73.8667 577.171 73.44C577.757 73.0133 578.184 72.4 578.451 71.6H574.111V69.08H581.551V72.26C581.297 73.1133 580.864 73.9067 580.251 74.64C579.651 75.3733 578.884 75.9667 577.951 76.42C577.017 76.8733 575.964 77.1 574.791 77.1C573.404 77.1 572.164 76.8 571.071 76.2C569.991 75.5867 569.144 74.74 568.531 73.66C567.931 72.58 567.631 71.3467 567.631 69.96C567.631 68.5733 567.931 67.34 568.531 66.26C569.144 65.1667 569.991 64.32 571.071 63.72C572.151 63.1067 573.384 62.8 574.771 62.8C576.451 62.8 577.864 63.2067 579.011 64.02C580.171 64.8333 580.937 65.96 581.311 67.4H577.531ZM587.223 74.26C587.677 73.9 587.883 73.7333 587.843 73.76C589.15 72.68 590.177 71.7933 590.923 71.1C591.683 70.4067 592.323 69.68 592.843 68.92C593.363 68.16 593.623 67.42 593.623 66.7C593.623 66.1533 593.497 65.7267 593.243 65.42C592.99 65.1133 592.61 64.96 592.103 64.96C591.597 64.96 591.197 65.1533 590.903 65.54C590.623 65.9133 590.483 66.4467 590.483 67.14H587.183C587.21 66.0067 587.45 65.06 587.903 64.3C588.37 63.54 588.977 62.98 589.723 62.62C590.483 62.26 591.323 62.08 592.243 62.08C593.83 62.08 595.023 62.4867 595.823 63.3C596.637 64.1133 597.043 65.1733 597.043 66.48C597.043 67.9067 596.557 69.2333 595.583 70.46C594.61 71.6733 593.37 72.86 591.863 74.02H597.263V76.8H587.223V74.26Z" fill="white"/>
<rect x="654.813" y="1.5" width="149.687" height="137.977" fill="#43D370" stroke="#38A35A" stroke-width="3"/>
<path d="M718.224 62.96V77H714.804V68.58L711.664 77H708.904L705.744 68.56V77H702.324V62.96H706.364L710.304 72.68L714.204 62.96H718.224ZM731.383 67.48C731.383 68.2933 731.197 69.04 730.823 69.72C730.45 70.3867 729.877 70.9267 729.103 71.34C728.33 71.7533 727.37 71.96 726.223 71.96H724.103V77H720.683V62.96H726.223C727.343 62.96 728.29 63.1533 729.063 63.54C729.837 63.9267 730.417 64.46 730.803 65.14C731.19 65.82 731.383 66.6 731.383 67.48ZM725.963 69.24C726.617 69.24 727.103 69.0867 727.423 68.78C727.743 68.4733 727.903 68.04 727.903 67.48C727.903 66.92 727.743 66.4867 727.423 66.18C727.103 65.8733 726.617 65.72 725.963 65.72H724.103V69.24H725.963ZM742.484 67.4C742.23 66.9333 741.864 66.58 741.384 66.34C740.917 66.0867 740.364 65.96 739.724 65.96C738.617 65.96 737.73 66.3267 737.064 67.06C736.397 67.78 736.064 68.7467 736.064 69.96C736.064 71.2533 736.41 72.2667 737.104 73C737.81 73.72 738.777 74.08 740.004 74.08C740.844 74.08 741.55 73.8667 742.124 73.44C742.71 73.0133 743.137 72.4 743.404 71.6H739.064V69.08H746.504V72.26C746.25 73.1133 745.817 73.9067 745.204 74.64C744.604 75.3733 743.837 75.9667 742.904 76.42C741.97 76.8733 740.917 77.1 739.744 77.1C738.357 77.1 737.117 76.8 736.024 76.2C734.944 75.5867 734.097 74.74 733.484 73.66C732.884 72.58 732.584 71.3467 732.584 69.96C732.584 68.5733 732.884 67.34 733.484 66.26C734.097 65.1667 734.944 64.32 736.024 63.72C737.104 63.1067 738.337 62.8 739.724 62.8C741.404 62.8 742.817 63.2067 743.964 64.02C745.124 64.8333 745.89 65.96 746.264 67.4H742.484ZM751.936 65.58V62.4H757.476V77H753.916V65.58H751.936Z" fill="white"/>
<rect x="330.889" y="146.605" width="472.111" height="30.8166" fill="#D9D9D9"/>
</svg>
